<svg width="593" height="465" viewBox="0 0 593 465" fill="none" xmlns="http://www.w3.org/2000/svg">
<path d="M0 20C0 8.95433 8.95431 0 20 0H573C584.046 0 593 8.95431 593 20V444.31C593 455.356 584.046 464.31 573 464.31H20C8.95431 464.31 0 455.356 0 444.31V20Z" fill="url(#paint0_radial_2_5)" fill-opacity="0.7"/>
<path d="M593 444.31C593 455.356 584.046 464.31 573 464.31L20 464.31C8.95428 464.31 -2.07833e-05 455.356 -2.05396e-05 444.31L-1.11776e-05 20.0003C-1.09339e-05 8.95463 8.95429 0.000315716 20 0.000319542L573 0.000511096C584.046 0.000514922 593 8.95482 593 20.0005L593 444.31Z" fill="url(#paint1_radial_2_5)" fill-opacity="0.7"/>
<defs>
<radialGradient id="paint0_radial_2_5" cx="0" cy="0" r="1" gradientUnits="userSpaceOnUse" gradientTransform="translate(443.5 147.5) rotate(144.702) scale(444.767 398.798)">
<stop stop-color="#FFD7AF"/>
<stop offset="1" stop-color="#FEFAF6" stop-opacity="0"/>
</radialGradient>
<radialGradient id="paint1_radial_2_5" cx="0" cy="0" r="1" gradientUnits="userSpaceOnUse" gradientTransform="translate(126.5 372.5) rotate(-38.9869) scale(259.877 287.12)">
<stop stop-color="#EFC3B5"/>
<stop offset="1" stop-color="#FEFAF6" stop-opacity="0"/>
</radialGradient>
</defs>
</svg>
