<svg width="584" height="440" viewBox="0 0 584 440" fill="none" xmlns="http://www.w3.org/2000/svg">
<circle opacity="0.1" cx="16" cy="16" r="16" fill="#59B880"/>
<circle opacity="0.1" cx="108" cy="16" r="16" fill="#59B880"/>
<circle opacity="0.1" cx="200" cy="16" r="16" fill="#59B880"/>
<circle opacity="0.1" cx="292" cy="16" r="16" fill="#59B880"/>
<circle opacity="0.1" cx="384" cy="16" r="16" fill="#59B880"/>
<circle opacity="0.1" cx="476" cy="16" r="16" fill="#59B880"/>
<circle opacity="0.1" cx="568" cy="16" r="16" fill="#59B880"/>
<circle opacity="0.1" cx="16" cy="84" r="16" fill="#59B880"/>
<circle opacity="0.1" cx="108" cy="84" r="16" fill="#59B880"/>
<circle opacity="0.1" cx="200" cy="84" r="16" fill="#59B880"/>
<circle opacity="0.1" cx="292" cy="84" r="16" fill="#59B880"/>
<circle opacity="0.1" cx="384" cy="84" r="16" fill="#59B880"/>
<circle opacity="0.1" cx="476" cy="84" r="16" fill="#59B880"/>
<circle opacity="0.1" cx="568" cy="84" r="16" fill="#59B880"/>
<circle opacity="0.1" cx="16" cy="152" r="16" fill="#59B880"/>
<circle opacity="0.1" cx="108" cy="152" r="16" fill="#59B880"/>
<circle opacity="0.1" cx="200" cy="152" r="16" fill="#59B880"/>
<circle opacity="0.1" cx="292" cy="152" r="16" fill="#59B880"/>
<circle opacity="0.1" cx="384" cy="152" r="16" fill="#59B880"/>
<circle opacity="0.1" cx="476" cy="152" r="16" fill="#59B880"/>
<circle opacity="0.1" cx="568" cy="152" r="16" fill="#59B880"/>
<circle opacity="0.1" cx="16" cy="220" r="16" fill="#59B880"/>
<circle opacity="0.1" cx="108" cy="220" r="16" fill="#59B880"/>
<circle opacity="0.1" cx="200" cy="220" r="16" fill="#59B880"/>
<circle opacity="0.1" cx="292" cy="220" r="16" fill="#59B880"/>
<circle opacity="0.1" cx="384" cy="220" r="16" fill="#59B880"/>
<circle opacity="0.1" cx="476" cy="220" r="16" fill="#59B880"/>
<circle opacity="0.1" cx="568" cy="220" r="16" fill="#59B880"/>
<circle opacity="0.1" cx="16" cy="288" r="16" fill="#59B880"/>
<circle opacity="0.1" cx="108" cy="288" r="16" fill="#59B880"/>
<circle opacity="0.1" cx="200" cy="288" r="16" fill="#59B880"/>
<circle opacity="0.1" cx="292" cy="288" r="16" fill="#59B880"/>
<circle opacity="0.1" cx="384" cy="288" r="16" fill="#59B880"/>
<circle opacity="0.1" cx="476" cy="288" r="16" fill="#59B880"/>
<circle opacity="0.1" cx="568" cy="288" r="16" fill="#59B880"/>
<circle opacity="0.1" cx="16" cy="356" r="16" fill="#59B880"/>
<circle opacity="0.1" cx="108" cy="356" r="16" fill="#59B880"/>
<circle opacity="0.1" cx="200" cy="356" r="16" fill="#59B880"/>
<circle opacity="0.1" cx="292" cy="356" r="16" fill="#59B880"/>
<circle opacity="0.1" cx="384" cy="356" r="16" fill="#59B880"/>
<circle opacity="0.1" cx="476" cy="356" r="16" fill="#59B880"/>
<circle opacity="0.1" cx="568" cy="356" r="16" fill="#59B880"/>
<circle opacity="0.1" cx="16" cy="424" r="16" fill="#59B880"/>
<circle opacity="0.1" cx="108" cy="424" r="16" fill="#59B880"/>
<circle opacity="0.1" cx="200" cy="424" r="16" fill="#59B880"/>
<circle opacity="0.1" cx="292" cy="424" r="16" fill="#59B880"/>
<circle opacity="0.1" cx="384" cy="424" r="16" fill="#59B880"/>
<circle opacity="0.1" cx="476" cy="424" r="16" fill="#59B880"/>
<circle opacity="0.1" cx="568" cy="424" r="16" fill="#59B880"/>
</svg>
