<svg width="447" height="426" viewBox="0 0 447 426" fill="none" xmlns="http://www.w3.org/2000/svg">
<g filter="url(#filter0_bd_5210_17026)">
<rect x="46" y="46" width="355.439" height="334" rx="9.02703" fill="white"/>
</g>
<path d="M110.09 97.5957V95.4112H111.715V87.1785H110.09V84.994H116.084V87.1785H114.459V95.4112H116.084V97.5957H110.09ZM118.226 97.5957V88.1173H120.898V89.7241H121.006C121.175 89.2307 121.47 88.8034 121.891 88.4423C122.312 88.0812 122.896 87.9007 123.642 87.9007C124.617 87.9007 125.351 88.2256 125.845 88.8756C126.35 89.5255 126.603 90.4523 126.603 91.6559V97.5957H123.931V91.8726C123.931 91.2587 123.835 90.8074 123.642 90.5185C123.45 90.2176 123.107 90.0672 122.613 90.0672C122.397 90.0672 122.186 90.0973 121.981 90.1574C121.777 90.2056 121.59 90.2898 121.422 90.4102C121.265 90.5305 121.139 90.681 121.043 90.8615C120.946 91.03 120.898 91.2286 120.898 91.4573V97.5957H118.226ZM136.136 97.5957H133.392V84.994H139.368C139.946 84.994 140.469 85.0903 140.939 85.2828C141.408 85.4754 141.805 85.7522 142.13 86.1133C142.467 86.4624 142.726 86.8836 142.907 87.3771C143.087 87.8706 143.177 88.4182 143.177 89.02C143.177 89.8746 142.985 90.6208 142.6 91.2587C142.227 91.8966 141.655 92.36 140.884 92.6489L143.358 97.5957H140.307L138.104 92.9739H136.136V97.5957ZM139.025 90.6629C139.434 90.6629 139.753 90.5606 139.982 90.356C140.223 90.1394 140.343 89.8264 140.343 89.4172V88.6228C140.343 88.2136 140.223 87.9067 139.982 87.7021C139.753 87.4854 139.434 87.3771 139.025 87.3771H136.136V90.6629H139.025ZM149.102 97.8124C148.38 97.8124 147.736 97.698 147.171 97.4693C146.605 97.2286 146.123 96.8976 145.726 96.4764C145.341 96.0431 145.046 95.5195 144.842 94.9056C144.649 94.2918 144.553 93.6058 144.553 92.8475C144.553 92.1013 144.649 91.4272 144.842 90.8254C145.034 90.2116 145.317 89.688 145.69 89.2547C146.075 88.8214 146.545 88.4904 147.098 88.2618C147.652 88.021 148.284 87.9007 148.994 87.9007C149.776 87.9007 150.444 88.0331 150.998 88.2979C151.564 88.5627 152.021 88.9177 152.37 89.3631C152.731 89.8084 152.99 90.3259 153.146 90.9157C153.315 91.4934 153.399 92.1013 153.399 92.7392V93.5335H147.315V93.678C147.315 94.3038 147.483 94.8033 147.82 95.1765C148.158 95.5375 148.687 95.7181 149.409 95.7181C149.963 95.7181 150.414 95.6098 150.763 95.3931C151.112 95.1644 151.437 94.8936 151.738 94.5807L153.074 96.2416C152.653 96.7351 152.099 97.1203 151.413 97.3971C150.739 97.6739 149.969 97.8124 149.102 97.8124ZM149.048 89.8686C148.507 89.8686 148.079 90.0491 147.766 90.4102C147.465 90.7592 147.315 91.2286 147.315 91.8184V91.9628H150.637V91.8004C150.637 91.2226 150.505 90.7592 150.24 90.4102C149.987 90.0491 149.59 89.8686 149.048 89.8686ZM157.132 97.5957L154.027 88.1173H156.663L157.836 91.9448L158.721 95.3751H158.865L159.75 91.9448L160.887 88.1173H163.415L160.31 97.5957H157.132ZM166.161 87.1063C165.619 87.1063 165.222 86.9859 164.969 86.7452C164.728 86.4925 164.608 86.1735 164.608 85.7884V85.3912C164.608 85.006 164.728 84.6931 164.969 84.4524C165.222 84.1996 165.619 84.0732 166.161 84.0732C166.702 84.0732 167.093 84.1996 167.334 84.4524C167.587 84.6931 167.713 85.006 167.713 85.3912V85.7884C167.713 86.1735 167.587 86.4925 167.334 86.7452C167.093 86.9859 166.702 87.1063 166.161 87.1063ZM164.825 88.1173H167.497V97.5957H164.825V88.1173ZM173.944 97.8124C173.222 97.8124 172.578 97.698 172.013 97.4693C171.447 97.2286 170.965 96.8976 170.568 96.4764C170.183 96.0431 169.888 95.5195 169.684 94.9056C169.491 94.2918 169.395 93.6058 169.395 92.8475C169.395 92.1013 169.491 91.4272 169.684 90.8254C169.876 90.2116 170.159 89.688 170.532 89.2547C170.917 88.8214 171.387 88.4904 171.94 88.2618C172.494 88.021 173.126 87.9007 173.836 87.9007C174.618 87.9007 175.286 88.0331 175.84 88.2979C176.406 88.5627 176.863 88.9177 177.212 89.3631C177.573 89.8084 177.832 90.3259 177.988 90.9157C178.157 91.4934 178.241 92.1013 178.241 92.7392V93.5335H172.157V93.678C172.157 94.3038 172.325 94.8033 172.662 95.1765C172.999 95.5375 173.529 95.7181 174.251 95.7181C174.805 95.7181 175.256 95.6098 175.605 95.3931C175.954 95.1644 176.279 94.8936 176.58 94.5807L177.916 96.2416C177.495 96.7351 176.941 97.1203 176.255 97.3971C175.581 97.6739 174.811 97.8124 173.944 97.8124ZM173.89 89.8686C173.349 89.8686 172.921 90.0491 172.608 90.4102C172.307 90.7592 172.157 91.2286 172.157 91.8184V91.9628H175.479V91.8004C175.479 91.2226 175.346 90.7592 175.082 90.4102C174.829 90.0491 174.432 89.8686 173.89 89.8686ZM179.137 88.1173H181.719L182.64 91.9448L183.29 94.8334H183.362L184.12 91.9448L185.204 88.1173H187.641L188.742 91.9448L189.518 94.8334H189.591L190.241 91.9448L191.161 88.1173H193.635L191.017 97.5957H188.219L187.063 93.5877L186.395 91.1324H186.341L185.691 93.5877L184.536 97.5957H181.791L179.137 88.1173Z" fill="#462B34"/>
<path d="M367.586 98.0408L374.56 91.1351L367.586 84.2294L369.733 82.1081L378.87 91.1351L369.733 100.162L367.586 98.0408Z" fill="#A0858E"/>
<path d="M91.981 92.5471C91.981 97.9972 87.5578 102.42 82.1077 102.42C76.6576 102.42 72.2344 97.9972 72.2344 92.5471C72.2344 87.0971 76.6576 82.6738 82.1077 82.6738C87.5578 82.6738 91.981 87.0971 91.981 92.5471Z" stroke="#A0858E" stroke-width="1.69257" stroke-linecap="round" stroke-linejoin="round"/>
<path d="M82.1055 86.623V92.2649" stroke="#A0858E" stroke-width="1.69257" stroke-linecap="round" stroke-linejoin="round"/>
<path d="M78.7227 79.8516H85.4929" stroke="#A0858E" stroke-width="1.69257" stroke-miterlimit="10" stroke-linecap="round" stroke-linejoin="round"/>
<path d="M114.658 158.742C113.551 158.742 112.612 158.555 111.841 158.182C111.071 157.797 110.415 157.304 109.874 156.702L111.679 154.878C112.534 155.841 113.587 156.323 114.838 156.323C115.512 156.323 116.012 156.184 116.337 155.908C116.662 155.631 116.824 155.264 116.824 154.806C116.824 154.457 116.728 154.168 116.536 153.94C116.343 153.699 115.952 153.536 115.362 153.452L114.116 153.29C112.78 153.121 111.799 152.718 111.173 152.08C110.56 151.442 110.253 150.594 110.253 149.534C110.253 148.969 110.361 148.451 110.578 147.982C110.794 147.512 111.101 147.109 111.498 146.772C111.908 146.435 112.401 146.176 112.979 145.996C113.569 145.803 114.237 145.707 114.983 145.707C115.934 145.707 116.77 145.857 117.492 146.158C118.215 146.459 118.834 146.899 119.352 147.476L117.528 149.318C117.228 148.969 116.86 148.686 116.427 148.469C116.006 148.241 115.47 148.126 114.82 148.126C114.207 148.126 113.749 148.235 113.448 148.451C113.147 148.668 112.997 148.969 112.997 149.354C112.997 149.787 113.111 150.1 113.34 150.293C113.581 150.485 113.966 150.624 114.495 150.708L115.741 150.907C117.041 151.111 118.004 151.514 118.63 152.116C119.256 152.706 119.569 153.548 119.569 154.644C119.569 155.246 119.46 155.799 119.244 156.305C119.027 156.81 118.708 157.244 118.287 157.605C117.878 157.966 117.366 158.249 116.752 158.453C116.138 158.646 115.44 158.742 114.658 158.742ZM121.699 145.165H124.371V150.654H124.48C124.648 150.16 124.943 149.733 125.364 149.372C125.786 149.011 126.369 148.83 127.116 148.83C128.091 148.83 128.825 149.155 129.318 149.805C129.824 150.455 130.076 151.382 130.076 152.586V158.525H127.404V152.802C127.404 152.188 127.308 151.737 127.116 151.448C126.923 151.147 126.58 150.997 126.087 150.997C125.87 150.997 125.659 151.027 125.455 151.087C125.25 151.135 125.063 151.22 124.895 151.34C124.738 151.46 124.612 151.611 124.516 151.791C124.42 151.96 124.371 152.158 124.371 152.387V158.525H121.699V145.165ZM136.3 158.742C135.602 158.742 134.976 158.628 134.422 158.399C133.881 158.17 133.417 157.839 133.032 157.406C132.659 156.973 132.37 156.449 132.165 155.835C131.961 155.221 131.858 154.535 131.858 153.777C131.858 153.019 131.961 152.333 132.165 151.719C132.37 151.105 132.659 150.588 133.032 150.166C133.417 149.733 133.881 149.402 134.422 149.173C134.976 148.945 135.602 148.83 136.3 148.83C136.998 148.83 137.618 148.945 138.159 149.173C138.713 149.402 139.176 149.733 139.549 150.166C139.935 150.588 140.23 151.105 140.434 151.719C140.639 152.333 140.741 153.019 140.741 153.777C140.741 154.535 140.639 155.221 140.434 155.835C140.23 156.449 139.935 156.973 139.549 157.406C139.176 157.839 138.713 158.17 138.159 158.399C137.618 158.628 136.998 158.742 136.3 158.742ZM136.3 156.63C136.829 156.63 137.239 156.467 137.527 156.142C137.816 155.817 137.961 155.354 137.961 154.752V152.82C137.961 152.219 137.816 151.755 137.527 151.43C137.239 151.105 136.829 150.943 136.3 150.943C135.77 150.943 135.361 151.105 135.072 151.43C134.783 151.755 134.639 152.219 134.639 152.82V154.752C134.639 155.354 134.783 155.817 135.072 156.142C135.361 156.467 135.77 156.63 136.3 156.63ZM142.645 158.525V149.047H145.317V151.105H145.407C145.455 150.84 145.54 150.588 145.66 150.347C145.78 150.094 145.937 149.871 146.129 149.679C146.334 149.486 146.575 149.336 146.852 149.228C147.128 149.107 147.453 149.047 147.826 149.047H148.296V151.538H147.628C146.845 151.538 146.262 151.641 145.877 151.845C145.503 152.05 145.317 152.429 145.317 152.983V158.525H142.645ZM153.337 158.525C152.41 158.525 151.706 158.291 151.224 157.821C150.755 157.352 150.52 156.666 150.52 155.763V151.123H149.184V149.047H149.852C150.213 149.047 150.46 148.963 150.592 148.794C150.725 148.614 150.791 148.361 150.791 148.036V146.483H153.192V149.047H155.07V151.123H153.192V156.449H154.925V158.525H153.337ZM159.58 158.525C158.665 158.525 157.991 158.303 157.558 157.857C157.137 157.412 156.926 156.768 156.926 155.926V145.165H159.598V156.449H160.79V158.525H159.58ZM163.728 148.036C163.186 148.036 162.789 147.916 162.536 147.675C162.295 147.422 162.175 147.103 162.175 146.718V146.321C162.175 145.936 162.295 145.623 162.536 145.382C162.789 145.129 163.186 145.003 163.728 145.003C164.269 145.003 164.66 145.129 164.901 145.382C165.154 145.623 165.28 145.936 165.28 146.321V146.718C165.28 147.103 165.154 147.422 164.901 147.675C164.66 147.916 164.269 148.036 163.728 148.036ZM162.392 149.047H165.064V158.525H162.392V149.047ZM170.771 158.742C169.856 158.742 169.086 158.598 168.46 158.309C167.834 158.008 167.275 157.587 166.781 157.045L168.352 155.456C168.689 155.829 169.062 156.124 169.471 156.341C169.88 156.557 170.344 156.666 170.861 156.666C171.391 156.666 171.758 156.588 171.963 156.431C172.167 156.263 172.269 156.04 172.269 155.763C172.269 155.318 171.951 155.053 171.313 154.969L170.284 154.842C168.153 154.578 167.088 153.603 167.088 151.918C167.088 151.46 167.172 151.045 167.341 150.672C167.521 150.287 167.768 149.962 168.081 149.697C168.406 149.42 168.791 149.209 169.236 149.065C169.694 148.909 170.205 148.83 170.771 148.83C171.264 148.83 171.698 148.866 172.071 148.939C172.456 148.999 172.793 149.095 173.082 149.228C173.383 149.348 173.654 149.504 173.894 149.697C174.147 149.877 174.394 150.082 174.635 150.311L173.1 151.881C172.799 151.581 172.456 151.346 172.071 151.177C171.698 150.997 171.313 150.907 170.915 150.907C170.458 150.907 170.133 150.979 169.941 151.123C169.748 151.268 169.652 151.46 169.652 151.701C169.652 151.954 169.718 152.152 169.85 152.297C169.995 152.429 170.259 152.525 170.645 152.586L171.71 152.73C173.792 153.007 174.833 153.958 174.833 155.583C174.833 156.04 174.737 156.461 174.544 156.846C174.352 157.232 174.075 157.569 173.714 157.857C173.365 158.134 172.937 158.351 172.432 158.507C171.939 158.664 171.385 158.742 170.771 158.742ZM179.836 158.525C178.909 158.525 178.205 158.291 177.724 157.821C177.254 157.352 177.019 156.666 177.019 155.763V151.123H175.683V149.047H176.351C176.712 149.047 176.959 148.963 177.092 148.794C177.224 148.614 177.29 148.361 177.29 148.036V146.483H179.691V149.047H181.569V151.123H179.691V156.449H181.425V158.525H179.836ZM187.309 158.742C186.586 158.742 185.942 158.628 185.377 158.399C184.811 158.158 184.33 157.827 183.932 157.406C183.547 156.973 183.252 156.449 183.048 155.835C182.855 155.221 182.759 154.535 182.759 153.777C182.759 153.031 182.855 152.357 183.048 151.755C183.24 151.141 183.523 150.618 183.896 150.184C184.281 149.751 184.751 149.42 185.305 149.191C185.858 148.951 186.49 148.83 187.2 148.83C187.983 148.83 188.651 148.963 189.204 149.228C189.77 149.492 190.227 149.847 190.576 150.293C190.937 150.738 191.196 151.256 191.353 151.845C191.521 152.423 191.605 153.031 191.605 153.669V154.463H185.521V154.608C185.521 155.234 185.69 155.733 186.027 156.106C186.364 156.467 186.893 156.648 187.615 156.648C188.169 156.648 188.62 156.539 188.969 156.323C189.319 156.094 189.644 155.823 189.944 155.51L191.28 157.171C190.859 157.665 190.305 158.05 189.619 158.327C188.945 158.604 188.175 158.742 187.309 158.742ZM187.254 150.798C186.713 150.798 186.285 150.979 185.973 151.34C185.672 151.689 185.521 152.158 185.521 152.748V152.893H188.843V152.73C188.843 152.152 188.711 151.689 188.446 151.34C188.193 150.979 187.796 150.798 187.254 150.798ZM199.306 156.937H199.216C199.143 157.189 199.029 157.43 198.873 157.659C198.716 157.875 198.524 158.068 198.295 158.237C198.078 158.393 197.825 158.513 197.537 158.598C197.26 158.694 196.971 158.742 196.67 158.742C195.466 158.742 194.558 158.321 193.944 157.478C193.33 156.624 193.023 155.39 193.023 153.777C193.023 152.164 193.33 150.937 193.944 150.094C194.558 149.252 195.466 148.83 196.67 148.83C197.284 148.83 197.825 148.999 198.295 149.336C198.776 149.673 199.083 150.106 199.216 150.636H199.306V145.165H201.978V158.525H199.306V156.937ZM197.555 156.576C198.06 156.576 198.475 156.455 198.8 156.214C199.137 155.962 199.306 155.619 199.306 155.185V152.387C199.306 151.954 199.137 151.617 198.8 151.376C198.475 151.123 198.06 150.997 197.555 150.997C197.049 150.997 196.628 151.177 196.291 151.538C195.966 151.888 195.803 152.363 195.803 152.965V154.608C195.803 155.209 195.966 155.691 196.291 156.052C196.628 156.401 197.049 156.576 197.555 156.576Z" fill="#462B34"/>
<path d="M367.586 158.972L374.56 152.067L367.586 145.161L369.733 143.04L378.87 152.067L369.733 161.094L367.586 158.972Z" fill="#A0858E"/>
<path d="M87.5456 140.781H76.668C74.2646 140.781 72.3125 142.745 72.3125 145.137V161.036C72.3125 163.067 73.7681 163.924 75.5509 162.943L81.0574 159.885C81.6442 159.557 82.592 159.557 83.1675 159.885L88.674 162.943C90.4568 163.936 91.9124 163.078 91.9124 161.036V145.137C91.9011 142.745 89.9491 140.781 87.5456 140.781Z" stroke="#A0858E" stroke-width="1.69257" stroke-linecap="round" stroke-linejoin="round"/>
<path d="M79.3867 150.938L81.0793 152.631L85.5928 148.117" stroke="#A0858E" stroke-width="1.69257" stroke-linecap="round" stroke-linejoin="round"/>
<path d="M113.177 206.857V214.584C113.177 215.475 113.352 216.143 113.701 216.588C114.05 217.022 114.634 217.238 115.452 217.238C116.271 217.238 116.854 217.022 117.204 216.588C117.553 216.143 117.727 215.475 117.727 214.584V206.857H120.399V214.296C120.399 215.222 120.309 216.029 120.128 216.715C119.96 217.389 119.677 217.948 119.28 218.394C118.883 218.827 118.371 219.152 117.745 219.369C117.119 219.573 116.355 219.676 115.452 219.676C114.55 219.676 113.785 219.573 113.159 219.369C112.534 219.152 112.022 218.827 111.625 218.394C111.228 217.948 110.939 217.389 110.758 216.715C110.59 216.029 110.505 215.222 110.505 214.296V206.857H113.177ZM122.969 209.981H125.641V211.569H125.731C125.863 211.04 126.164 210.606 126.634 210.269C127.115 209.932 127.663 209.764 128.277 209.764C129.48 209.764 130.389 210.185 131.003 211.028C131.617 211.87 131.924 213.098 131.924 214.711C131.924 216.324 131.617 217.557 131.003 218.412C130.389 219.254 129.48 219.676 128.277 219.676C127.964 219.676 127.669 219.627 127.392 219.531C127.115 219.447 126.862 219.327 126.634 219.17C126.417 219.002 126.231 218.809 126.074 218.592C125.918 218.364 125.803 218.123 125.731 217.87H125.641V223.07H122.969V209.981ZM127.392 217.509C127.898 217.509 128.313 217.335 128.638 216.986C128.975 216.624 129.143 216.143 129.143 215.541V213.898C129.143 213.297 128.975 212.821 128.638 212.472C128.313 212.111 127.898 211.93 127.392 211.93C126.887 211.93 126.465 212.057 126.128 212.31C125.803 212.55 125.641 212.887 125.641 213.321V216.119C125.641 216.552 125.803 216.895 126.128 217.148C126.465 217.389 126.887 217.509 127.392 217.509ZM137.78 219.676C137.07 219.676 136.438 219.561 135.885 219.333C135.331 219.092 134.868 218.761 134.494 218.34C134.121 217.906 133.839 217.383 133.646 216.769C133.453 216.155 133.357 215.469 133.357 214.711C133.357 213.952 133.453 213.272 133.646 212.671C133.839 212.057 134.121 211.533 134.494 211.1C134.868 210.667 135.331 210.336 135.885 210.107C136.438 209.878 137.07 209.764 137.78 209.764C138.743 209.764 139.544 209.981 140.182 210.414C140.831 210.847 141.295 211.455 141.572 212.237L139.405 213.176C139.321 212.815 139.146 212.508 138.882 212.255C138.617 212.003 138.25 211.876 137.78 211.876C137.239 211.876 136.829 212.057 136.553 212.418C136.276 212.767 136.137 213.242 136.137 213.844V215.613C136.137 216.215 136.276 216.691 136.553 217.04C136.829 217.389 137.239 217.563 137.78 217.563C138.262 217.563 138.641 217.437 138.918 217.184C139.207 216.919 139.417 216.576 139.55 216.155L141.626 217.058C141.313 217.96 140.825 218.622 140.163 219.044C139.514 219.465 138.719 219.676 137.78 219.676ZM147.037 219.676C146.339 219.676 145.713 219.561 145.159 219.333C144.618 219.104 144.154 218.773 143.769 218.34C143.396 217.906 143.107 217.383 142.903 216.769C142.698 216.155 142.596 215.469 142.596 214.711C142.596 213.952 142.698 213.266 142.903 212.653C143.107 212.039 143.396 211.521 143.769 211.1C144.154 210.667 144.618 210.336 145.159 210.107C145.713 209.878 146.339 209.764 147.037 209.764C147.735 209.764 148.355 209.878 148.897 210.107C149.45 210.336 149.914 210.667 150.287 211.1C150.672 211.521 150.967 212.039 151.171 212.653C151.376 213.266 151.478 213.952 151.478 214.711C151.478 215.469 151.376 216.155 151.171 216.769C150.967 217.383 150.672 217.906 150.287 218.34C149.914 218.773 149.45 219.104 148.897 219.333C148.355 219.561 147.735 219.676 147.037 219.676ZM147.037 217.563C147.567 217.563 147.976 217.401 148.265 217.076C148.554 216.751 148.698 216.287 148.698 215.686V213.754C148.698 213.152 148.554 212.689 148.265 212.364C147.976 212.039 147.567 211.876 147.037 211.876C146.507 211.876 146.098 212.039 145.809 212.364C145.52 212.689 145.376 213.152 145.376 213.754V215.686C145.376 216.287 145.52 216.751 145.809 217.076C146.098 217.401 146.507 217.563 147.037 217.563ZM153.382 219.459V209.981H156.054V211.587H156.162C156.331 211.082 156.62 210.655 157.029 210.306C157.438 209.944 157.998 209.764 158.708 209.764C159.358 209.764 159.912 209.926 160.369 210.251C160.826 210.576 161.157 211.052 161.362 211.678H161.416C161.5 211.413 161.627 211.166 161.795 210.937C161.976 210.697 162.193 210.492 162.445 210.324C162.698 210.155 162.981 210.023 163.294 209.926C163.607 209.818 163.944 209.764 164.305 209.764C165.22 209.764 165.918 210.089 166.399 210.739C166.893 211.389 167.139 212.316 167.139 213.519V219.459H164.467V213.736C164.467 212.532 164.034 211.93 163.167 211.93C162.77 211.93 162.409 212.045 162.084 212.273C161.759 212.502 161.597 212.851 161.597 213.321V219.459H158.925V213.736C158.925 212.532 158.491 211.93 157.625 211.93C157.432 211.93 157.24 211.961 157.047 212.021C156.867 212.069 156.698 212.153 156.542 212.273C156.397 212.394 156.277 212.544 156.181 212.725C156.096 212.893 156.054 213.092 156.054 213.321V219.459H153.382ZM170.85 208.97C170.309 208.97 169.912 208.849 169.659 208.608C169.418 208.356 169.298 208.037 169.298 207.652V207.254C169.298 206.869 169.418 206.556 169.659 206.316C169.912 206.063 170.309 205.936 170.85 205.936C171.392 205.936 171.783 206.063 172.024 206.316C172.277 206.556 172.403 206.869 172.403 207.254V207.652C172.403 208.037 172.277 208.356 172.024 208.608C171.783 208.849 171.392 208.97 170.85 208.97ZM169.514 209.981H172.186V219.459H169.514V209.981ZM174.68 219.459V209.981H177.352V211.587H177.461C177.629 211.094 177.924 210.667 178.345 210.306C178.767 209.944 179.35 209.764 180.096 209.764C181.071 209.764 181.806 210.089 182.299 210.739C182.805 211.389 183.057 212.316 183.057 213.519V219.459H180.385V213.736C180.385 213.122 180.289 212.671 180.096 212.382C179.904 212.081 179.561 211.93 179.067 211.93C178.851 211.93 178.64 211.961 178.436 212.021C178.231 212.069 178.044 212.153 177.876 212.273C177.719 212.394 177.593 212.544 177.497 212.725C177.4 212.893 177.352 213.092 177.352 213.321V219.459H174.68ZM194.209 220.145C194.209 220.651 194.119 221.096 193.939 221.481C193.77 221.866 193.487 222.191 193.09 222.456C192.693 222.733 192.163 222.937 191.501 223.07C190.851 223.214 190.045 223.286 189.082 223.286C188.264 223.286 187.566 223.232 186.988 223.124C186.422 223.028 185.959 222.883 185.598 222.691C185.249 222.51 184.99 222.281 184.821 222.005C184.665 221.74 184.587 221.433 184.587 221.084C184.587 220.554 184.743 220.139 185.056 219.838C185.369 219.537 185.802 219.351 186.356 219.278V219.08C185.899 218.996 185.555 218.803 185.327 218.502C185.098 218.189 184.984 217.828 184.984 217.419C184.984 217.166 185.032 216.949 185.128 216.769C185.237 216.576 185.369 216.414 185.525 216.281C185.694 216.137 185.886 216.023 186.103 215.938C186.32 215.854 186.536 215.788 186.753 215.74V215.668C186.175 215.403 185.748 215.042 185.471 214.584C185.194 214.115 185.056 213.573 185.056 212.96C185.056 211.997 185.387 211.226 186.049 210.649C186.723 210.059 187.746 209.764 189.118 209.764C189.744 209.764 190.28 209.824 190.725 209.944V209.583C190.725 209.078 190.845 208.717 191.086 208.5C191.339 208.271 191.694 208.157 192.151 208.157H193.65V210.143H191.555V210.251C192.109 210.516 192.518 210.883 192.783 211.353C193.048 211.81 193.18 212.346 193.18 212.96C193.18 213.91 192.843 214.675 192.169 215.252C191.507 215.818 190.49 216.101 189.118 216.101C188.504 216.101 187.945 216.035 187.439 215.902C187.162 216.083 187.024 216.336 187.024 216.661C187.024 216.889 187.108 217.07 187.277 217.202C187.457 217.323 187.752 217.383 188.161 217.383H190.906C192.061 217.383 192.897 217.623 193.415 218.105C193.945 218.586 194.209 219.266 194.209 220.145ZM191.7 220.506C191.7 220.229 191.592 220.019 191.375 219.874C191.158 219.73 190.779 219.658 190.238 219.658H186.988C186.867 219.778 186.777 219.91 186.717 220.055C186.669 220.211 186.645 220.362 186.645 220.506C186.645 220.855 186.795 221.108 187.096 221.264C187.397 221.433 187.909 221.517 188.631 221.517H189.714C190.436 221.517 190.948 221.433 191.249 221.264C191.549 221.108 191.7 220.855 191.7 220.506ZM189.118 214.35C189.648 214.35 190.039 214.241 190.292 214.025C190.556 213.796 190.689 213.471 190.689 213.05V212.833C190.689 212.412 190.556 212.093 190.292 211.876C190.039 211.648 189.648 211.533 189.118 211.533C188.589 211.533 188.191 211.648 187.927 211.876C187.674 212.093 187.547 212.412 187.547 212.833V213.05C187.547 213.471 187.674 213.796 187.927 214.025C188.191 214.241 188.589 214.35 189.118 214.35ZM199.32 219.459V217.274H200.945V209.042H199.32V206.857H205.314V209.042H203.689V217.274H205.314V219.459H199.32ZM207.456 219.459V209.981H210.128V211.587H210.236C210.405 211.094 210.7 210.667 211.121 210.306C211.542 209.944 212.126 209.764 212.872 209.764C213.847 209.764 214.581 210.089 215.075 210.739C215.58 211.389 215.833 212.316 215.833 213.519V219.459H213.161V213.736C213.161 213.122 213.065 212.671 212.872 212.382C212.68 212.081 212.337 211.93 211.843 211.93C211.627 211.93 211.416 211.961 211.211 212.021C211.007 212.069 210.82 212.153 210.652 212.273C210.495 212.394 210.369 212.544 210.273 212.725C210.176 212.893 210.128 213.092 210.128 213.321V219.459H207.456ZM221.533 219.459C220.606 219.459 219.902 219.224 219.421 218.755C218.951 218.285 218.717 217.599 218.717 216.697V212.057H217.381V209.981H218.049C218.41 209.981 218.656 209.896 218.789 209.728C218.921 209.547 218.987 209.295 218.987 208.97V207.417H221.389V209.981H223.266V212.057H221.389V217.383H223.122V219.459H221.533ZM229.006 219.676C228.283 219.676 227.64 219.561 227.074 219.333C226.508 219.092 226.027 218.761 225.63 218.34C225.244 217.906 224.949 217.383 224.745 216.769C224.552 216.155 224.456 215.469 224.456 214.711C224.456 213.965 224.552 213.291 224.745 212.689C224.937 212.075 225.22 211.551 225.593 211.118C225.979 210.685 226.448 210.354 227.002 210.125C227.555 209.884 228.187 209.764 228.897 209.764C229.68 209.764 230.348 209.896 230.901 210.161C231.467 210.426 231.924 210.781 232.273 211.226C232.634 211.672 232.893 212.189 233.05 212.779C233.218 213.357 233.302 213.965 233.302 214.602V215.397H227.218V215.541C227.218 216.167 227.387 216.667 227.724 217.04C228.061 217.401 228.59 217.581 229.313 217.581C229.866 217.581 230.318 217.473 230.667 217.256C231.016 217.028 231.341 216.757 231.642 216.444L232.978 218.105C232.556 218.598 232.003 218.984 231.317 219.26C230.643 219.537 229.872 219.676 229.006 219.676ZM228.951 211.732C228.41 211.732 227.983 211.912 227.67 212.273C227.369 212.623 227.218 213.092 227.218 213.682V213.826H230.54V213.664C230.54 213.086 230.408 212.623 230.143 212.273C229.89 211.912 229.493 211.732 228.951 211.732ZM235.19 219.459V209.981H237.862V212.039H237.952C238 211.774 238.084 211.521 238.205 211.28C238.325 211.028 238.481 210.805 238.674 210.612C238.879 210.42 239.119 210.269 239.396 210.161C239.673 210.041 239.998 209.981 240.371 209.981H240.84V212.472H240.172C239.39 212.472 238.806 212.574 238.421 212.779C238.048 212.984 237.862 213.363 237.862 213.916V219.459H235.19ZM244.634 219.459L241.529 209.981H244.165L245.338 213.808L246.223 217.238H246.367L247.252 213.808L248.389 209.981H250.917L247.812 219.459H244.634ZM253.663 208.97C253.121 208.97 252.724 208.849 252.471 208.608C252.231 208.356 252.11 208.037 252.11 207.652V207.254C252.11 206.869 252.231 206.556 252.471 206.316C252.724 206.063 253.121 205.936 253.663 205.936C254.204 205.936 254.596 206.063 254.836 206.316C255.089 206.556 255.215 206.869 255.215 207.254V207.652C255.215 208.037 255.089 208.356 254.836 208.608C254.596 208.849 254.204 208.97 253.663 208.97ZM252.327 209.981H254.999V219.459H252.327V209.981ZM261.447 219.676C260.724 219.676 260.08 219.561 259.515 219.333C258.949 219.092 258.468 218.761 258.07 218.34C257.685 217.906 257.39 217.383 257.186 216.769C256.993 216.155 256.897 215.469 256.897 214.711C256.897 213.965 256.993 213.291 257.186 212.689C257.378 212.075 257.661 211.551 258.034 211.118C258.419 210.685 258.889 210.354 259.443 210.125C259.996 209.884 260.628 209.764 261.338 209.764C262.121 209.764 262.789 209.896 263.342 210.161C263.908 210.426 264.365 210.781 264.714 211.226C265.075 211.672 265.334 212.189 265.491 212.779C265.659 213.357 265.743 213.965 265.743 214.602V215.397H259.659V215.541C259.659 216.167 259.828 216.667 260.165 217.04C260.502 217.401 261.031 217.581 261.753 217.581C262.307 217.581 262.758 217.473 263.107 217.256C263.457 217.028 263.781 216.757 264.082 216.444L265.418 218.105C264.997 218.598 264.443 218.984 263.757 219.26C263.083 219.537 262.313 219.676 261.447 219.676ZM261.392 211.732C260.851 211.732 260.423 211.912 260.111 212.273C259.81 212.623 259.659 213.092 259.659 213.682V213.826H262.981V213.664C262.981 213.086 262.849 212.623 262.584 212.273C262.331 211.912 261.934 211.732 261.392 211.732ZM266.64 209.981H269.221L270.142 213.808L270.792 216.697H270.864L271.623 213.808L272.706 209.981H275.143L276.244 213.808L277.021 216.697H277.093L277.743 213.808L278.664 209.981H281.137L278.519 219.459H275.721L274.565 215.451L273.897 212.996H273.843L273.193 215.451L272.038 219.459H269.294L266.64 209.981Z" fill="#462B34"/>
<path d="M367.586 219.904L374.56 212.998L367.586 206.093L369.733 203.971L378.87 212.998L369.733 222.025L367.586 219.904Z" fill="#A0858E"/>
<path d="M93.3895 206.51V212.265C93.3895 213.698 92.9155 214.906 92.0693 215.741C91.2343 216.587 90.0269 217.061 88.5939 217.061V219.103C88.5939 219.87 87.7363 220.333 87.1044 219.904L86.0099 219.182C86.1114 218.832 86.1566 218.449 86.1566 218.042V213.45C86.1566 211.148 84.622 209.613 82.3201 209.613H74.6584C74.5004 209.613 74.3537 209.625 74.207 209.636V206.51C74.207 203.633 76.1253 201.715 79.0026 201.715H88.5939C91.4712 201.715 93.3895 203.633 93.3895 206.51Z" stroke="#A0858E" stroke-width="1.69257" stroke-miterlimit="10" stroke-linecap="round" stroke-linejoin="round"/>
<path d="M86.1589 213.452V218.044C86.1589 218.45 86.1138 218.834 86.0122 219.184C85.5947 220.843 84.2181 221.881 82.3224 221.881H79.2532L75.8455 224.149C75.3377 224.499 74.6607 224.126 74.6607 223.517V221.881C73.5098 221.881 72.5506 221.497 71.8849 220.831C71.2079 220.154 70.8242 219.195 70.8242 218.044V213.452C70.8242 211.308 72.1557 209.83 74.2094 209.638C74.356 209.627 74.5027 209.615 74.6607 209.615H82.3224C84.6243 209.615 86.1589 211.15 86.1589 213.452Z" stroke="#A0858E" stroke-width="1.69257" stroke-miterlimit="10" stroke-linecap="round" stroke-linejoin="round"/>
<path d="M110.09 280.391V278.206H111.715V269.973H110.09V267.789H116.084V269.973H114.459V278.206H116.084V280.391H110.09ZM118.226 280.391V270.912H120.898V272.519H121.006C121.175 272.026 121.47 271.598 121.891 271.237C122.312 270.876 122.896 270.696 123.642 270.696C124.617 270.696 125.351 271.021 125.845 271.671C126.35 272.32 126.603 273.247 126.603 274.451V280.391H123.931V274.667C123.931 274.054 123.835 273.602 123.642 273.313C123.45 273.013 123.107 272.862 122.613 272.862C122.397 272.862 122.186 272.892 121.981 272.952C121.777 273 121.59 273.085 121.422 273.205C121.265 273.325 121.139 273.476 121.043 273.656C120.946 273.825 120.898 274.024 120.898 274.252V280.391H118.226ZM132.303 280.391C131.376 280.391 130.672 280.156 130.191 279.687C129.721 279.217 129.486 278.531 129.486 277.628V272.988H128.15V270.912H128.818C129.18 270.912 129.426 270.828 129.559 270.659C129.691 270.479 129.757 270.226 129.757 269.901V268.349H132.158V270.912H134.036V272.988H132.158V278.314H133.892V280.391H132.303ZM139.776 280.607C139.053 280.607 138.409 280.493 137.844 280.264C137.278 280.024 136.797 279.693 136.399 279.271C136.014 278.838 135.719 278.314 135.515 277.701C135.322 277.087 135.226 276.401 135.226 275.642C135.226 274.896 135.322 274.222 135.515 273.62C135.707 273.007 135.99 272.483 136.363 272.05C136.749 271.616 137.218 271.285 137.772 271.057C138.325 270.816 138.957 270.696 139.667 270.696C140.45 270.696 141.118 270.828 141.671 271.093C142.237 271.358 142.694 271.713 143.043 272.158C143.404 272.603 143.663 273.121 143.82 273.711C143.988 274.288 144.072 274.896 144.072 275.534V276.328H137.988V276.473C137.988 277.099 138.157 277.598 138.494 277.971C138.831 278.332 139.36 278.513 140.083 278.513C140.636 278.513 141.088 278.405 141.437 278.188C141.786 277.959 142.111 277.689 142.411 277.376L143.747 279.037C143.326 279.53 142.773 279.915 142.087 280.192C141.412 280.469 140.642 280.607 139.776 280.607ZM139.721 272.663C139.18 272.663 138.753 272.844 138.44 273.205C138.139 273.554 137.988 274.024 137.988 274.613V274.758H141.31V274.595C141.31 274.018 141.178 273.554 140.913 273.205C140.66 272.844 140.263 272.663 139.721 272.663ZM145.96 280.391V270.912H148.632V272.97H148.722C148.77 272.706 148.854 272.453 148.975 272.212C149.095 271.959 149.251 271.737 149.444 271.544C149.649 271.352 149.889 271.201 150.166 271.093C150.443 270.972 150.768 270.912 151.141 270.912H151.61V273.404H150.942C150.16 273.404 149.576 273.506 149.191 273.711C148.818 273.915 148.632 274.294 148.632 274.848V280.391H145.96ZM155.404 280.391L152.299 270.912H154.935L156.108 274.74L156.993 278.17H157.137L158.022 274.74L159.159 270.912H161.687L158.582 280.391H155.404ZM164.433 269.901C163.891 269.901 163.494 269.781 163.241 269.54C163 269.287 162.88 268.968 162.88 268.583V268.186C162.88 267.801 163 267.488 163.241 267.247C163.494 266.995 163.891 266.868 164.433 266.868C164.974 266.868 165.366 266.995 165.606 267.247C165.859 267.488 165.985 267.801 165.985 268.186V268.583C165.985 268.968 165.859 269.287 165.606 269.54C165.366 269.781 164.974 269.901 164.433 269.901ZM163.097 270.912H165.769V280.391H163.097V270.912ZM172.216 280.607C171.494 280.607 170.85 280.493 170.285 280.264C169.719 280.024 169.238 279.693 168.84 279.271C168.455 278.838 168.16 278.314 167.956 277.701C167.763 277.087 167.667 276.401 167.667 275.642C167.667 274.896 167.763 274.222 167.956 273.62C168.148 273.007 168.431 272.483 168.804 272.05C169.189 271.616 169.659 271.285 170.212 271.057C170.766 270.816 171.398 270.696 172.108 270.696C172.89 270.696 173.558 270.828 174.112 271.093C174.678 271.358 175.135 271.713 175.484 272.158C175.845 272.603 176.104 273.121 176.261 273.711C176.429 274.288 176.513 274.896 176.513 275.534V276.328H170.429V276.473C170.429 277.099 170.598 277.598 170.935 277.971C171.272 278.332 171.801 278.513 172.523 278.513C173.077 278.513 173.528 278.405 173.877 278.188C174.226 277.959 174.551 277.689 174.852 277.376L176.188 279.037C175.767 279.53 175.213 279.915 174.527 280.192C173.853 280.469 173.083 280.607 172.216 280.607ZM172.162 272.663C171.621 272.663 171.193 272.844 170.88 273.205C170.58 273.554 170.429 274.024 170.429 274.613V274.758H173.751V274.595C173.751 274.018 173.619 273.554 173.354 273.205C173.101 272.844 172.704 272.663 172.162 272.663ZM177.41 270.912H179.991L180.912 274.74L181.562 277.628H181.634L182.392 274.74L183.476 270.912H185.913L187.014 274.74L187.791 277.628H187.863L188.513 274.74L189.434 270.912H191.907L189.289 280.391H186.491L185.335 276.383L184.667 273.927H184.613L183.963 276.383L182.808 280.391H180.063L177.41 270.912ZM197.904 280.391V267.789H206.263V270.226H200.648V272.808H205.432V275.227H200.648V280.391H197.904ZM211.692 280.607C210.97 280.607 210.326 280.493 209.76 280.264C209.195 280.024 208.713 279.693 208.316 279.271C207.931 278.838 207.636 278.314 207.431 277.701C207.239 277.087 207.142 276.401 207.142 275.642C207.142 274.896 207.239 274.222 207.431 273.62C207.624 273.007 207.907 272.483 208.28 272.05C208.665 271.616 209.134 271.285 209.688 271.057C210.242 270.816 210.874 270.696 211.584 270.696C212.366 270.696 213.034 270.828 213.588 271.093C214.153 271.358 214.611 271.713 214.96 272.158C215.321 272.603 215.58 273.121 215.736 273.711C215.905 274.288 215.989 274.896 215.989 275.534V276.328H209.905V276.473C209.905 277.099 210.073 277.598 210.41 277.971C210.747 278.332 211.277 278.513 211.999 278.513C212.553 278.513 213.004 278.405 213.353 278.188C213.702 277.959 214.027 277.689 214.328 277.376L215.664 279.037C215.243 279.53 214.689 279.915 214.003 280.192C213.329 280.469 212.559 280.607 211.692 280.607ZM211.638 272.663C211.096 272.663 210.669 272.844 210.356 273.205C210.055 273.554 209.905 274.024 209.905 274.613V274.758H213.227V274.595C213.227 274.018 213.094 273.554 212.829 273.205C212.577 272.844 212.18 272.663 211.638 272.663ZM221.83 280.607C221.108 280.607 220.464 280.493 219.898 280.264C219.332 280.024 218.851 279.693 218.454 279.271C218.069 278.838 217.774 278.314 217.569 277.701C217.377 277.087 217.28 276.401 217.28 275.642C217.28 274.896 217.377 274.222 217.569 273.62C217.762 273.007 218.045 272.483 218.418 272.05C218.803 271.616 219.272 271.285 219.826 271.057C220.38 270.816 221.011 270.696 221.722 270.696C222.504 270.696 223.172 270.828 223.726 271.093C224.291 271.358 224.749 271.713 225.098 272.158C225.459 272.603 225.717 273.121 225.874 273.711C226.042 274.288 226.127 274.896 226.127 275.534V276.328H220.042V276.473C220.042 277.099 220.211 277.598 220.548 277.971C220.885 278.332 221.415 278.513 222.137 278.513C222.69 278.513 223.142 278.405 223.491 278.188C223.84 277.959 224.165 277.689 224.466 277.376L225.802 279.037C225.38 279.53 224.827 279.915 224.141 280.192C223.467 280.469 222.696 280.607 221.83 280.607ZM221.776 272.663C221.234 272.663 220.807 272.844 220.494 273.205C220.193 273.554 220.042 274.024 220.042 274.613V274.758H223.364V274.595C223.364 274.018 223.232 273.554 222.967 273.205C222.714 272.844 222.317 272.663 221.776 272.663ZM233.827 278.802H233.737C233.665 279.055 233.55 279.295 233.394 279.524C233.237 279.741 233.045 279.933 232.816 280.102C232.6 280.258 232.347 280.379 232.058 280.463C231.781 280.559 231.492 280.607 231.191 280.607C229.988 280.607 229.079 280.186 228.465 279.343C227.851 278.489 227.544 277.255 227.544 275.642C227.544 274.03 227.851 272.802 228.465 271.959C229.079 271.117 229.988 270.696 231.191 270.696C231.805 270.696 232.347 270.864 232.816 271.201C233.298 271.538 233.605 271.971 233.737 272.501H233.827V267.031H236.499V280.391H233.827V278.802ZM232.076 278.441C232.581 278.441 232.997 278.32 233.322 278.08C233.659 277.827 233.827 277.484 233.827 277.051V274.252C233.827 273.819 233.659 273.482 233.322 273.241C232.997 272.988 232.581 272.862 232.076 272.862C231.57 272.862 231.149 273.043 230.812 273.404C230.487 273.753 230.325 274.228 230.325 274.83V276.473C230.325 277.075 230.487 277.556 230.812 277.917C231.149 278.266 231.57 278.441 232.076 278.441ZM238.998 267.031H241.67V272.501H241.76C241.893 271.971 242.193 271.538 242.663 271.201C243.144 270.864 243.692 270.696 244.306 270.696C245.509 270.696 246.418 271.117 247.032 271.959C247.646 272.802 247.953 274.03 247.953 275.642C247.953 277.255 247.646 278.489 247.032 279.343C246.418 280.186 245.509 280.607 244.306 280.607C243.993 280.607 243.698 280.559 243.421 280.463C243.144 280.379 242.891 280.258 242.663 280.102C242.446 279.933 242.26 279.741 242.103 279.524C241.947 279.295 241.832 279.055 241.76 278.802H241.67V280.391H238.998V267.031ZM243.421 278.441C243.927 278.441 244.342 278.266 244.667 277.917C245.004 277.556 245.172 277.075 245.172 276.473V274.83C245.172 274.228 245.004 273.753 244.667 273.404C244.342 273.043 243.927 272.862 243.421 272.862C242.916 272.862 242.494 272.988 242.157 273.241C241.832 273.482 241.67 273.819 241.67 274.252V277.051C241.67 277.484 241.832 277.827 242.157 278.08C242.494 278.32 242.916 278.441 243.421 278.441ZM256.987 280.391C256.505 280.391 256.102 280.24 255.777 279.939C255.464 279.638 255.266 279.235 255.181 278.73H255.073C254.929 279.343 254.61 279.813 254.116 280.138C253.623 280.451 253.015 280.607 252.293 280.607C251.342 280.607 250.614 280.355 250.108 279.849C249.603 279.343 249.35 278.675 249.35 277.845C249.35 276.846 249.711 276.106 250.433 275.624C251.167 275.131 252.16 274.884 253.412 274.884H254.911V274.288C254.911 273.831 254.79 273.47 254.55 273.205C254.309 272.928 253.906 272.79 253.34 272.79C252.81 272.79 252.389 272.904 252.076 273.133C251.763 273.362 251.504 273.62 251.3 273.909L249.711 272.501C250.096 271.935 250.578 271.496 251.155 271.183C251.745 270.858 252.54 270.696 253.539 270.696C254.887 270.696 255.898 270.99 256.572 271.58C257.246 272.17 257.583 273.031 257.583 274.162V278.314H258.467V280.391H256.987ZM253.286 278.748C253.731 278.748 254.11 278.651 254.423 278.459C254.748 278.266 254.911 277.953 254.911 277.52V276.401H253.611C252.564 276.401 252.04 276.756 252.04 277.466V277.737C252.04 278.086 252.148 278.344 252.365 278.513C252.582 278.669 252.889 278.748 253.286 278.748ZM264.088 280.607C263.378 280.607 262.746 280.493 262.193 280.264C261.639 280.024 261.175 279.693 260.802 279.271C260.429 278.838 260.146 278.314 259.954 277.701C259.761 277.087 259.665 276.401 259.665 275.642C259.665 274.884 259.761 274.204 259.954 273.602C260.146 272.988 260.429 272.465 260.802 272.032C261.175 271.598 261.639 271.267 262.193 271.039C262.746 270.81 263.378 270.696 264.088 270.696C265.051 270.696 265.851 270.912 266.489 271.346C267.139 271.779 267.603 272.387 267.88 273.169L265.713 274.108C265.629 273.747 265.454 273.44 265.189 273.187C264.925 272.934 264.558 272.808 264.088 272.808C263.547 272.808 263.137 272.988 262.861 273.35C262.584 273.699 262.445 274.174 262.445 274.776V276.545C262.445 277.147 262.584 277.622 262.861 277.971C263.137 278.32 263.547 278.495 264.088 278.495C264.57 278.495 264.949 278.369 265.226 278.116C265.514 277.851 265.725 277.508 265.857 277.087L267.934 277.989C267.621 278.892 267.133 279.554 266.471 279.975C265.821 280.397 265.027 280.607 264.088 280.607ZM269.587 267.031H272.259V274.92H272.368L273.541 273.169L275.437 270.912H278.398L275.238 274.541L278.759 280.391H275.581L273.451 276.383L272.259 277.719V280.391H269.587V267.031Z" fill="#462B34"/>
<path d="M367.586 280.838L374.56 273.932L367.586 267.026L369.733 264.905L378.87 273.932L369.733 282.959L367.586 280.838Z" fill="#A0858E"/>
<path d="M91.1322 269.699V280.701C91.1322 284.086 89.1124 285.214 86.6187 285.214H77.5916C75.0979 285.214 73.0781 284.086 73.0781 280.701V269.699C73.0781 266.032 75.0979 265.186 77.5916 265.186C77.5916 265.885 77.8737 266.517 78.3363 266.98C78.799 267.442 79.4309 267.724 80.1305 267.724H84.0798C85.479 267.724 86.6187 266.585 86.6187 265.186C89.1124 265.186 91.1322 266.032 91.1322 269.699Z" stroke="#A0858E" stroke-width="1.69257" stroke-linecap="round" stroke-linejoin="round"/>
<path d="M86.6208 265.185C86.6208 266.585 85.4811 267.724 84.0819 267.724H80.1326C79.433 267.724 78.8011 267.442 78.3384 266.979C77.8758 266.517 77.5938 265.885 77.5938 265.185C77.5938 263.786 78.7334 262.646 80.1326 262.646H84.0819C84.7815 262.646 85.4134 262.929 85.8761 263.391C86.3387 263.854 86.6208 264.486 86.6208 265.185Z" stroke="#A0858E" stroke-width="1.69257" stroke-linecap="round" stroke-linejoin="round"/>
<path d="M77.5938 275.059H82.1073" stroke="#A0858E" stroke-width="1.69257" stroke-linecap="round" stroke-linejoin="round"/>
<path d="M77.5938 279.572H86.6208" stroke="#A0858E" stroke-width="1.69257" stroke-linecap="round" stroke-linejoin="round"/>
<path d="M114.658 342.672C113.551 342.672 112.612 342.485 111.841 342.112C111.071 341.727 110.415 341.233 109.874 340.632L111.679 338.808C112.534 339.771 113.587 340.252 114.838 340.252C115.512 340.252 116.012 340.114 116.337 339.837C116.662 339.56 116.824 339.193 116.824 338.736C116.824 338.387 116.728 338.098 116.536 337.869C116.343 337.629 115.952 337.466 115.362 337.382L114.116 337.219C112.78 337.051 111.799 336.648 111.173 336.01C110.56 335.372 110.253 334.523 110.253 333.464C110.253 332.898 110.361 332.381 110.578 331.912C110.794 331.442 111.101 331.039 111.498 330.702C111.908 330.365 112.401 330.106 112.979 329.926C113.569 329.733 114.237 329.637 114.983 329.637C115.934 329.637 116.77 329.787 117.492 330.088C118.215 330.389 118.834 330.828 119.352 331.406L117.528 333.248C117.228 332.898 116.86 332.616 116.427 332.399C116.006 332.17 115.47 332.056 114.82 332.056C114.207 332.056 113.749 332.164 113.448 332.381C113.147 332.598 112.997 332.898 112.997 333.284C112.997 333.717 113.111 334.03 113.34 334.222C113.581 334.415 113.966 334.553 114.495 334.638L115.741 334.836C117.041 335.041 118.004 335.444 118.63 336.046C119.256 336.636 119.569 337.478 119.569 338.573C119.569 339.175 119.46 339.729 119.244 340.234C119.027 340.74 118.708 341.173 118.287 341.534C117.878 341.895 117.366 342.178 116.752 342.383C116.138 342.575 115.44 342.672 114.658 342.672ZM124.933 342.455C124.006 342.455 123.302 342.22 122.821 341.751C122.351 341.282 122.117 340.596 122.117 339.693V335.053H120.781V332.977H121.449C121.81 332.977 122.057 332.892 122.189 332.724C122.321 332.543 122.388 332.291 122.388 331.966V330.413H124.789V332.977H126.666V335.053H124.789V340.379H126.522V342.455H124.933ZM135.528 342.455C135.046 342.455 134.643 342.305 134.318 342.004C134.005 341.703 133.806 341.3 133.722 340.794H133.614C133.469 341.408 133.15 341.877 132.657 342.202C132.163 342.515 131.556 342.672 130.833 342.672C129.883 342.672 129.154 342.419 128.649 341.913C128.143 341.408 127.891 340.74 127.891 339.909C127.891 338.91 128.252 338.17 128.974 337.689C129.708 337.195 130.701 336.949 131.953 336.949H133.451V336.353C133.451 335.895 133.331 335.534 133.09 335.27C132.85 334.993 132.446 334.854 131.881 334.854C131.351 334.854 130.93 334.969 130.617 335.197C130.304 335.426 130.045 335.685 129.84 335.974L128.252 334.565C128.637 334 129.118 333.56 129.696 333.248C130.286 332.923 131.08 332.76 132.079 332.76C133.427 332.76 134.438 333.055 135.112 333.645C135.786 334.234 136.123 335.095 136.123 336.226V340.379H137.008V342.455H135.528ZM131.826 340.812C132.272 340.812 132.651 340.716 132.964 340.523C133.289 340.331 133.451 340.018 133.451 339.584V338.465H132.151C131.104 338.465 130.581 338.82 130.581 339.53V339.801C130.581 340.15 130.689 340.409 130.906 340.577C131.122 340.734 131.429 340.812 131.826 340.812ZM142.018 342.455C141.091 342.455 140.387 342.22 139.905 341.751C139.436 341.282 139.201 340.596 139.201 339.693V335.053H137.865V332.977H138.533C138.894 332.977 139.141 332.892 139.273 332.724C139.406 332.543 139.472 332.291 139.472 331.966V330.413H141.873V332.977H143.751V335.053H141.873V340.379H143.606V342.455H142.018ZM151.204 340.866H151.113C151.029 341.107 150.915 341.336 150.77 341.552C150.638 341.769 150.463 341.962 150.247 342.13C150.03 342.299 149.771 342.431 149.47 342.527C149.182 342.624 148.845 342.672 148.459 342.672C147.485 342.672 146.744 342.353 146.239 341.715C145.745 341.065 145.499 340.138 145.499 338.935V332.977H148.171V338.7C148.171 339.278 148.273 339.723 148.477 340.036C148.682 340.349 149.031 340.505 149.525 340.505C149.729 340.505 149.934 340.475 150.138 340.415C150.343 340.355 150.524 340.271 150.68 340.162C150.837 340.042 150.963 339.897 151.059 339.729C151.156 339.56 151.204 339.362 151.204 339.133V332.977H153.876V342.455H151.204V340.866ZM159.575 342.672C158.661 342.672 157.89 342.527 157.264 342.238C156.639 341.938 156.079 341.516 155.585 340.975L157.156 339.386C157.493 339.759 157.866 340.054 158.275 340.271C158.685 340.487 159.148 340.596 159.666 340.596C160.195 340.596 160.562 340.517 160.767 340.361C160.972 340.192 161.074 339.97 161.074 339.693C161.074 339.247 160.755 338.983 160.117 338.898L159.088 338.772C156.958 338.507 155.892 337.532 155.892 335.847C155.892 335.39 155.977 334.975 156.145 334.602C156.326 334.216 156.572 333.891 156.885 333.627C157.21 333.35 157.595 333.139 158.041 332.995C158.498 332.838 159.01 332.76 159.575 332.76C160.069 332.76 160.502 332.796 160.875 332.868C161.26 332.929 161.597 333.025 161.886 333.157C162.187 333.278 162.458 333.434 162.699 333.627C162.951 333.807 163.198 334.012 163.439 334.24L161.904 335.811C161.603 335.51 161.26 335.276 160.875 335.107C160.502 334.927 160.117 334.836 159.72 334.836C159.262 334.836 158.937 334.908 158.745 335.053C158.552 335.197 158.456 335.39 158.456 335.631C158.456 335.883 158.522 336.082 158.655 336.226C158.799 336.359 159.064 336.455 159.449 336.515L160.514 336.66C162.596 336.937 163.638 337.887 163.638 339.512C163.638 339.97 163.541 340.391 163.349 340.776C163.156 341.161 162.879 341.498 162.518 341.787C162.169 342.064 161.742 342.281 161.236 342.437C160.743 342.593 160.189 342.672 159.575 342.672Z" fill="#462B34"/>
<path d="M367.586 342.9L374.56 335.994L367.586 329.089L369.733 326.967L378.87 335.994L369.733 345.021L367.586 342.9Z" fill="#A0858E"/>
<path d="M85.766 324.711H78.4541C74.2114 324.711 73.8842 328.525 76.1748 330.601L88.0453 341.388C90.3359 343.465 90.0087 347.279 85.766 347.279H78.4541C74.2114 347.279 73.8842 343.465 76.1748 341.388L88.0453 330.601C90.3359 328.525 90.0087 324.711 85.766 324.711Z" stroke="#A0858E" stroke-width="1.69257" stroke-linecap="round" stroke-linejoin="round"/>
<defs>
<filter id="filter0_bd_5210_17026" x="0.864868" y="0.864868" width="445.708" height="424.27" filterUnits="userSpaceOnUse" color-interpolation-filters="sRGB">
<feFlood flood-opacity="0" result="BackgroundImageFix"/>
<feGaussianBlur in="BackgroundImageFix" stdDeviation="5.64189"/>
<feComposite in2="SourceAlpha" operator="in" result="effect1_backgroundBlur_5210_17026"/>
<feColorMatrix in="SourceAlpha" type="matrix" values="0 0 0 0 0 0 0 0 0 0 0 0 0 0 0 0 0 0 127 0" result="hardAlpha"/>
<feOffset/>
<feGaussianBlur stdDeviation="22.5676"/>
<feComposite in2="hardAlpha" operator="out"/>
<feColorMatrix type="matrix" values="0 0 0 0 0.254167 0 0 0 0 0.253108 0 0 0 0 0.253108 0 0 0 0.16 0"/>
<feBlend mode="normal" in2="effect1_backgroundBlur_5210_17026" result="effect2_dropShadow_5210_17026"/>
<feBlend mode="normal" in="SourceGraphic" in2="effect2_dropShadow_5210_17026" result="shape"/>
</filter>
</defs>
</svg>
