<svg width="691" height="572" viewBox="0 0 691 572" fill="none" xmlns="http://www.w3.org/2000/svg">
<g filter="url(#filter0_d_13_285)">
<mask id="path-1-inside-1_13_285" fill="white">
<path d="M399.693 141.801C387.891 158.892 402.47 192.613 437.182 191.689C437.182 214.785 459.629 218.25 480.688 222.176C501.746 226.102 533.119 212.98 533.119 212.98C533.119 212.98 546.909 242.34 593.619 230.774C683.638 239.319 666.144 180.061 660.346 167.605C648.335 141.801 616.295 139.029 596.856 145.496C588.063 120.783 561.219 120.552 541.78 129.098C525.813 111.544 466.572 112.931 459.629 129.098C447.596 118.935 411.495 124.71 399.693 141.801Z"/>
</mask>
<path d="M399.693 141.801C387.891 158.892 402.47 192.613 437.182 191.689C437.182 214.785 459.629 218.25 480.688 222.176C501.746 226.102 533.119 212.98 533.119 212.98C533.119 212.98 546.909 242.34 593.619 230.774C683.638 239.319 666.144 180.061 660.346 167.605C648.335 141.801 616.295 139.029 596.856 145.496C588.063 120.783 561.219 120.552 541.78 129.098C525.813 111.544 466.572 112.931 459.629 129.098C447.596 118.935 411.495 124.71 399.693 141.801Z" fill="white"/>
<path d="M399.693 141.801C387.891 158.892 402.47 192.613 437.182 191.689C437.182 214.785 459.629 218.25 480.688 222.176C501.746 226.102 533.119 212.98 533.119 212.98C533.119 212.98 546.909 242.34 593.619 230.774C683.638 239.319 666.144 180.061 660.346 167.605C648.335 141.801 616.295 139.029 596.856 145.496C588.063 120.783 561.219 120.552 541.78 129.098C525.813 111.544 466.572 112.931 459.629 129.098C447.596 118.935 411.495 124.71 399.693 141.801Z" stroke="#462B34" stroke-width="1.7794" mask="url(#path-1-inside-1_13_285)"/>
</g>
<g filter="url(#filter1_d_13_285)">
<mask id="path-2-inside-2_13_285" fill="white">
<path d="M39.6446 67.0472C43.7246 56.7786 52.971 56.3037 60.6719 57.0055C68.102 57.6835 75.5321 58.3616 82.9639 59.0397C84.5582 59.1848 86.2467 59.3009 87.6527 58.111C89.4101 56.6256 90.2762 53.5149 91.2634 50.7921C95.5099 39.0619 104.279 31.7615 112.851 32.8168C119.321 33.6136 125.846 38.6978 132.036 35.6372C135.627 33.8616 138.474 29.5716 141.863 26.9939C148.476 21.9625 157.088 24.4426 162.13 32.83C167.058 27.8857 172.66 24.1075 178.509 24.002C184.358 23.8964 190.456 28.0044 193.465 35.8773C195.177 40.3599 195.846 45.8161 198.038 49.7552C201.61 56.177 207.92 56.4013 213.249 54.7417C218.579 53.0822 223.983 50.0454 229.307 51.7419C232.099 52.631 234.677 54.7998 236.947 57.5015C239.855 60.963 242.423 65.691 242.921 71.3635C243.942 83.0225 236.216 91.7477 229.139 95.6525C215.616 103.114 201.001 103.758 186.666 103.948C157.413 104.335 128.16 103.145 98.9307 101.357C84.3127 100.462 69.698 99.4148 55.085 98.341C48.6539 97.8661 44.325 99.6575 40.7042 90.3915C38.01 83.4948 36.7688 74.2921 39.648 67.0445L39.6446 67.0472Z"/>
</mask>
<path d="M39.6446 67.0472C43.7246 56.7786 52.971 56.3037 60.6719 57.0055C68.102 57.6835 75.5321 58.3616 82.9639 59.0397C84.5582 59.1848 86.2467 59.3009 87.6527 58.111C89.4101 56.6256 90.2762 53.5149 91.2634 50.7921C95.5099 39.0619 104.279 31.7615 112.851 32.8168C119.321 33.6136 125.846 38.6978 132.036 35.6372C135.627 33.8616 138.474 29.5716 141.863 26.9939C148.476 21.9625 157.088 24.4426 162.13 32.83C167.058 27.8857 172.66 24.1075 178.509 24.002C184.358 23.8964 190.456 28.0044 193.465 35.8773C195.177 40.3599 195.846 45.8161 198.038 49.7552C201.61 56.177 207.92 56.4013 213.249 54.7417C218.579 53.0822 223.983 50.0454 229.307 51.7419C232.099 52.631 234.677 54.7998 236.947 57.5015C239.855 60.963 242.423 65.691 242.921 71.3635C243.942 83.0225 236.216 91.7477 229.139 95.6525C215.616 103.114 201.001 103.758 186.666 103.948C157.413 104.335 128.16 103.145 98.9307 101.357C84.3127 100.462 69.698 99.4148 55.085 98.341C48.6539 97.8661 44.325 99.6575 40.7042 90.3915C38.01 83.4948 36.7688 74.2921 39.648 67.0445L39.6446 67.0472Z" fill="white"/>
<path d="M39.6446 67.0472C43.7246 56.7786 52.971 56.3037 60.6719 57.0055C68.102 57.6835 75.5321 58.3616 82.9639 59.0397C84.5582 59.1848 86.2467 59.3009 87.6527 58.111C89.4101 56.6256 90.2762 53.5149 91.2634 50.7921C95.5099 39.0619 104.279 31.7615 112.851 32.8168C119.321 33.6136 125.846 38.6978 132.036 35.6372C135.627 33.8616 138.474 29.5716 141.863 26.9939C148.476 21.9625 157.088 24.4426 162.13 32.83C167.058 27.8857 172.66 24.1075 178.509 24.002C184.358 23.8964 190.456 28.0044 193.465 35.8773C195.177 40.3599 195.846 45.8161 198.038 49.7552C201.61 56.177 207.92 56.4013 213.249 54.7417C218.579 53.0822 223.983 50.0454 229.307 51.7419C232.099 52.631 234.677 54.7998 236.947 57.5015C239.855 60.963 242.423 65.691 242.921 71.3635C243.942 83.0225 236.216 91.7477 229.139 95.6525C215.616 103.114 201.001 103.758 186.666 103.948C157.413 104.335 128.16 103.145 98.9307 101.357C84.3127 100.462 69.698 99.4148 55.085 98.341C48.6539 97.8661 44.325 99.6575 40.7042 90.3915C38.01 83.4948 36.7688 74.2921 39.648 67.0445L39.6446 67.0472Z" stroke="#462B34" stroke-width="1.7794" mask="url(#path-2-inside-2_13_285)"/>
</g>
<g filter="url(#filter2_d_13_285)">
<mask id="path-3-inside-3_13_285" fill="white">
<path d="M123.125 434.281C128.526 420.064 147.922 418.924 163.091 420.254C181.624 421.875 200.158 423.5 218.694 425.122C229.805 426.096 241.06 427.099 251.569 430.841C280.163 426.061 309.152 423.62 338.144 423.542C347.839 423.518 357.678 423.778 366.964 426.567C377.532 429.74 387.378 436.16 398.411 436.325C406.059 436.441 413.908 433.511 421.186 435.85C428.27 438.126 433.047 445.059 434.809 452.276C436.57 459.494 435.834 467.057 435.083 474.45C408.025 475.446 380.967 476.441 353.908 477.437C350.622 477.556 347.233 477.704 344.263 479.114C341.452 480.451 339.247 482.825 336.471 484.239C332.811 486.107 328.52 486.146 324.409 486.142C295.568 506.082 227.061 503.417 211.039 486.061C199.309 486.054 185.288 484.756 179.712 474.454C147.218 483.842 111.138 480.184 81.1976 464.464C74.6664 461.035 68.1141 456.965 60.7515 456.459C56.5207 456.17 52.2652 457.092 48.0414 456.705C19.9685 454.13 58.9337 432.86 65.9546 430.581C70.661 429.054 126.222 426.117 123.122 434.281H123.125Z"/>
</mask>
<path d="M123.125 434.281C128.526 420.064 147.922 418.924 163.091 420.254C181.624 421.875 200.158 423.5 218.694 425.122C229.805 426.096 241.06 427.099 251.569 430.841C280.163 426.061 309.152 423.62 338.144 423.542C347.839 423.518 357.678 423.778 366.964 426.567C377.532 429.74 387.378 436.16 398.411 436.325C406.059 436.441 413.908 433.511 421.186 435.85C428.27 438.126 433.047 445.059 434.809 452.276C436.57 459.494 435.834 467.057 435.083 474.45C408.025 475.446 380.967 476.441 353.908 477.437C350.622 477.556 347.233 477.704 344.263 479.114C341.452 480.451 339.247 482.825 336.471 484.239C332.811 486.107 328.52 486.146 324.409 486.142C295.568 506.082 227.061 503.417 211.039 486.061C199.309 486.054 185.288 484.756 179.712 474.454C147.218 483.842 111.138 480.184 81.1976 464.464C74.6664 461.035 68.1141 456.965 60.7515 456.459C56.5207 456.17 52.2652 457.092 48.0414 456.705C19.9685 454.13 58.9337 432.86 65.9546 430.581C70.661 429.054 126.222 426.117 123.122 434.281H123.125Z" fill="white"/>
<path d="M123.125 434.281C128.526 420.064 147.922 418.924 163.091 420.254C181.624 421.875 200.158 423.5 218.694 425.122C229.805 426.096 241.06 427.099 251.569 430.841C280.163 426.061 309.152 423.62 338.144 423.542C347.839 423.518 357.678 423.778 366.964 426.567C377.532 429.74 387.378 436.16 398.411 436.325C406.059 436.441 413.908 433.511 421.186 435.85C428.27 438.126 433.047 445.059 434.809 452.276C436.57 459.494 435.834 467.057 435.083 474.45C408.025 475.446 380.967 476.441 353.908 477.437C350.622 477.556 347.233 477.704 344.263 479.114C341.452 480.451 339.247 482.825 336.471 484.239C332.811 486.107 328.52 486.146 324.409 486.142C295.568 506.082 227.061 503.417 211.039 486.061C199.309 486.054 185.288 484.756 179.712 474.454C147.218 483.842 111.138 480.184 81.1976 464.464C74.6664 461.035 68.1141 456.965 60.7515 456.459C56.5207 456.17 52.2652 457.092 48.0414 456.705C19.9685 454.13 58.9337 432.86 65.9546 430.581C70.661 429.054 126.222 426.117 123.122 434.281H123.125Z" stroke="#462B34" stroke-width="1.7794" mask="url(#path-3-inside-3_13_285)"/>
</g>
<g filter="url(#filter3_d_13_285)">
<mask id="path-4-inside-4_13_285" fill="white">
<path d="M504.25 428.634C500.87 426.535 497.756 423.791 496.027 420.21C494.298 416.63 494.17 412.11 496.421 408.826C498.097 406.381 500.818 404.899 503.436 403.506C508.076 401.037 512.834 398.529 518.035 397.77C523.236 397.012 529.055 398.337 532.361 402.414C529.95 399.394 530.732 394.711 533.205 391.736C535.677 388.759 539.415 387.158 543.102 385.981C547.051 384.72 551.224 383.816 555.33 384.38C559.436 384.943 563.486 387.193 565.335 390.897C564.824 387.636 567.076 384.572 569.601 382.438C577.16 376.05 588.466 374.479 597.47 378.566C600.469 379.927 603.324 381.996 604.676 384.996C606.027 387.996 605.419 392.029 602.67 393.846C612.384 391.953 622.901 399.359 624.377 409.133C624.768 411.724 624.586 414.439 623.569 416.855C621.975 420.636 618.56 423.298 615.211 425.675C610.474 429.037 605.331 432.281 599.549 432.834C590.822 433.668 582.861 428.288 575.763 423.158C574.932 424.285 559.66 433.084 557.964 433.731C551.24 436.295 544.072 437.675 536.877 437.772C526.308 437.913 513.125 434.144 504.251 428.636L504.25 428.634Z"/>
</mask>
<path d="M504.25 428.634C500.87 426.535 497.756 423.791 496.027 420.21C494.298 416.63 494.17 412.11 496.421 408.826C498.097 406.381 500.818 404.899 503.436 403.506C508.076 401.037 512.834 398.529 518.035 397.77C523.236 397.012 529.055 398.337 532.361 402.414C529.95 399.394 530.732 394.711 533.205 391.736C535.677 388.759 539.415 387.158 543.102 385.981C547.051 384.72 551.224 383.816 555.33 384.38C559.436 384.943 563.486 387.193 565.335 390.897C564.824 387.636 567.076 384.572 569.601 382.438C577.16 376.05 588.466 374.479 597.47 378.566C600.469 379.927 603.324 381.996 604.676 384.996C606.027 387.996 605.419 392.029 602.67 393.846C612.384 391.953 622.901 399.359 624.377 409.133C624.768 411.724 624.586 414.439 623.569 416.855C621.975 420.636 618.56 423.298 615.211 425.675C610.474 429.037 605.331 432.281 599.549 432.834C590.822 433.668 582.861 428.288 575.763 423.158C574.932 424.285 559.66 433.084 557.964 433.731C551.24 436.295 544.072 437.675 536.877 437.772C526.308 437.913 513.125 434.144 504.251 428.636L504.25 428.634Z" fill="white"/>
<path d="M504.25 428.634C500.87 426.535 497.756 423.791 496.027 420.21C494.298 416.63 494.17 412.11 496.421 408.826C498.097 406.381 500.818 404.899 503.436 403.506C508.076 401.037 512.834 398.529 518.035 397.77C523.236 397.012 529.055 398.337 532.361 402.414C529.95 399.394 530.732 394.711 533.205 391.736C535.677 388.759 539.415 387.158 543.102 385.981C547.051 384.72 551.224 383.816 555.33 384.38C559.436 384.943 563.486 387.193 565.335 390.897C564.824 387.636 567.076 384.572 569.601 382.438C577.16 376.05 588.466 374.479 597.47 378.566C600.469 379.927 603.324 381.996 604.676 384.996C606.027 387.996 605.419 392.029 602.67 393.846C612.384 391.953 622.901 399.359 624.377 409.133C624.768 411.724 624.586 414.439 623.569 416.855C621.975 420.636 618.56 423.298 615.211 425.675C610.474 429.037 605.331 432.281 599.549 432.834C590.822 433.668 582.861 428.288 575.763 423.158C574.932 424.285 559.66 433.084 557.964 433.731C551.24 436.295 544.072 437.675 536.877 437.772C526.308 437.913 513.125 434.144 504.251 428.636L504.25 428.634Z" stroke="#462B34" stroke-width="1.7794" mask="url(#path-4-inside-4_13_285)"/>
</g>
<path d="M274.527 387.367L268.801 389.671C267.857 390.049 266.6 389.618 265.915 388.673C265.908 388.664 265.903 388.654 265.896 388.644C266.262 388.601 266.631 388.558 267.004 388.512C267.05 388.507 267.098 388.502 267.132 388.495C269.688 388.177 272.166 387.799 274.527 387.367Z" fill="#D4D8F3"/>
<path d="M232.178 352.414C231.278 352.077 230.401 351.72 229.555 351.354H229.553L215.97 340.496L211.63 329.17L203.165 324.481C204.666 323.58 206.22 322.773 207.795 322.079C208.207 321.899 208.616 321.728 209.016 321.566C214.6 327.541 223.057 337.665 232.178 352.414Z" fill="#FFD7A6"/>
<path d="M254.872 357.989C252.473 357.56 249.76 357.066 247.091 356.519L246.93 335.424L241.026 328.47L241.19 327.384C241.951 328.104 242.686 328.861 243.384 329.641C245.278 331.762 246.891 334.106 248.315 336.807C248.664 337.469 249.016 338.182 249.36 338.927C251.796 344.227 253.248 350.06 254.453 355.577C254.467 355.64 254.587 356.346 254.729 357.165L254.872 357.989Z" fill="#EAA24B"/>
<path d="M246.366 355.51C243.098 344.432 238.35 328.17 237.134 324.004C238.338 324.883 239.485 325.816 240.554 326.792L240.27 328.688L246.215 335.691L246.366 355.51Z" fill="#FFD7A6"/>
<path d="M234.649 333.839L232.717 332.314C232.717 332.314 232.71 332.309 232.705 332.307L229.234 329.565C229.065 329.433 228.846 329.399 228.646 329.476C228.446 329.553 228.304 329.724 228.268 329.934L227.598 333.76C227.594 333.776 227.591 333.793 227.589 333.81L227.09 336.653L211.583 320.634C212.024 320.489 212.464 320.354 212.903 320.232L227.902 327.814L231.708 320.622C232.536 321.063 233.334 321.516 234.083 321.973L234.649 333.839Z" fill="#D4D8F3"/>
<path d="M232.108 332.756L231.711 335.987L229.271 334.33L229.268 334.327L229.254 334.306L229.196 334.277L229.191 334.274L228.341 333.696L228.943 330.258L232.108 332.756Z" fill="#9FD3FB"/>
<path d="M236.615 353.92C235.476 353.571 234.353 353.202 233.272 352.814C224.044 337.764 215.445 327.413 209.734 321.282C210.112 321.14 210.471 321.01 210.82 320.887L226.735 337.325C226.85 337.443 227.004 337.508 227.166 337.508C227.226 337.508 227.286 337.499 227.344 337.482C227.561 337.414 227.722 337.234 227.761 337.009L228.204 334.477L228.77 334.863C230.218 336.865 233.677 345.278 236.615 353.92Z" fill="white"/>
<path d="M245.836 356.256C244.944 356.068 244.029 355.866 243.109 355.652C239.903 346.265 236.682 339.574 232.689 333.999L232.775 333.279L234.411 334.57C234.599 334.717 234.847 334.742 235.059 334.633C235.273 334.525 235.396 334.308 235.386 334.069L234.832 322.435C234.866 322.457 234.898 322.476 234.931 322.498C235.35 322.767 235.762 323.04 236.186 323.331C236.69 325.051 242.237 344.073 245.836 356.256Z" fill="white"/>
<path d="M242.271 355.453C240.541 355.036 238.961 354.614 237.468 354.176C234.926 346.645 231.937 339.178 230.169 335.815L231.467 336.697C231.569 336.767 231.687 336.8 231.805 336.8C231.889 336.8 231.973 336.783 232.055 336.747C232.248 336.658 232.378 336.482 232.404 336.27L232.551 335.068C236.232 340.368 239.26 346.722 242.271 355.453Z" fill="#9FD3FB"/>
<path d="M294.733 362.451L294.726 362.475L294.153 364.104C292.312 364.094 290.41 364.07 288.492 364.032L288.485 363.993C288.444 363.779 288.405 363.581 288.372 363.408C288.242 362.723 287.661 362.205 286.958 362.145C276.923 361.355 266.712 360.056 256.603 358.29C256.625 358.278 256.634 358.252 256.627 358.228C254.156 347.579 250.735 340.161 250.586 339.896C250.584 339.896 250.584 339.891 250.584 339.888C260.132 346.87 271.311 351.585 282.138 356.149C285.115 357.404 288.194 358.702 291.166 360.018L294.283 361.398C294.683 361.577 294.88 362.039 294.736 362.451H294.733Z" fill="#EAA24B"/>
<path d="M359.087 370.901V371.144C359.087 373.069 358.271 374.92 356.845 376.218C355.58 377.372 353.94 378.011 352.222 378.011H342.132C342 378.006 341.872 378.006 341.744 378.004L341.371 377.999H341.364L294.447 378.008C295.598 377.69 296.728 377.37 297.826 377.047H297.831C299.669 377.257 301.507 377.469 303.354 377.548C306.107 377.666 308.848 377.286 311.486 376.483C312.223 376.259 312.953 376.006 313.671 375.724C314.034 375.58 314.396 375.428 314.755 375.269C314.938 375.187 315.118 375.105 315.297 375.021C315.393 374.975 315.511 374.932 315.617 374.879C316.39 375.031 317.161 375.18 317.934 375.329C318.216 375.385 318.495 375.438 318.777 375.493L318.82 375.5C319.531 375.64 320.242 375.777 320.952 375.915C321.853 376.091 322.752 376.266 323.652 376.442C324.105 376.529 324.558 376.628 325.013 376.7C325.447 376.77 325.909 376.811 326.331 376.659C326.683 376.532 327.017 376.303 327.193 375.963C327.388 375.58 327.367 375.149 327.196 374.763C326.854 373.995 325.994 373.643 325.283 373.303C323.732 372.563 322.125 371.947 320.475 371.465C320.451 371.458 320.427 371.45 320.403 371.446C320.728 371.465 321.053 371.487 321.379 371.506C322.455 371.573 323.534 371.641 324.611 371.708C325.151 371.742 325.69 371.776 326.227 371.809C326.663 371.836 327.102 371.882 327.538 371.858C328.227 371.819 329.012 371.566 329.289 370.901H359.087Z" fill="#EAA24B"/>
<path d="M345.63 349.278C344.416 354.289 341.109 357.802 338.247 357.113C336.901 356.785 335.843 355.554 335.267 353.646C334.675 351.67 334.675 349.227 335.272 346.767C335.867 344.308 336.985 342.134 338.416 340.65C339.557 339.47 340.776 338.846 341.925 338.846C342.171 338.846 342.414 338.875 342.653 338.932C343.999 339.26 345.059 340.491 345.632 342.399C346.227 344.375 346.227 346.818 345.63 349.278Z" fill="white"/>
<path d="M328.651 370.522C328.615 370.666 328.548 370.755 328.442 370.854C328.42 370.876 328.372 370.91 328.304 370.948C328.213 370.999 328.215 370.999 328.114 371.032C328.039 371.057 327.962 371.076 327.885 371.09C327.794 371.11 327.745 371.117 327.68 371.122C327.285 371.16 326.89 371.126 326.495 371.102C325.977 371.069 325.457 371.037 324.939 371.004C323.911 370.941 322.882 370.876 321.856 370.811C319.799 370.683 317.744 370.553 315.687 370.425C315.451 370.411 315.218 370.394 314.982 370.382C314.912 370.372 314.842 370.365 314.772 370.358C314.579 370.339 314.411 370.539 314.411 370.719C314.411 370.931 314.577 371.061 314.772 371.081C314.794 371.081 314.815 371.085 314.837 371.088C314.861 371.095 314.883 371.098 314.907 371.1C314.933 371.102 314.957 371.102 314.984 371.105C318.108 371.447 321.189 372.268 324.065 373.536C324.433 373.7 324.8 373.868 325.161 374.044C325.496 374.208 325.855 374.367 326.151 374.598C326.372 374.772 326.58 375.029 326.606 375.299C326.635 375.576 326.488 375.776 326.247 375.909C325.973 376.058 325.611 376.058 325.286 376.017C324.86 375.962 324.438 375.861 324.017 375.776C323.154 375.61 322.294 375.441 321.435 375.275C320.611 375.114 319.789 374.955 318.966 374.796C318.151 374.637 317.337 374.475 316.523 374.321C316.335 374.285 316.147 374.246 315.96 374.21C315.873 374.193 315.784 374.174 315.697 374.157C315.661 374.15 315.63 374.145 315.596 374.14C315.485 374.126 315.374 374.152 315.292 374.22C314.945 374.374 314.603 374.548 314.257 374.702C312.816 375.331 311.311 375.827 309.783 376.196C308.276 376.559 306.736 376.783 305.185 376.839C303.569 376.894 301.948 376.762 300.344 376.6C299.52 376.518 298.696 376.422 297.872 376.328H297.868C297.841 376.326 297.815 376.323 297.79 376.318H297.781C296.786 376.205 295.794 376.092 294.796 376C294.604 375.981 294.435 376.179 294.435 376.362C294.435 376.571 294.601 376.704 294.796 376.723C295.179 376.757 295.56 376.795 295.943 376.839C294.926 377.126 293.888 377.412 292.833 377.694C292.438 377.798 292.038 377.904 291.639 378.007H291.178C290.933 376.735 290.651 375.266 290.36 373.755L289.726 370.469C289.382 368.676 289.052 366.966 288.787 365.595L288.625 364.756C289.201 364.768 289.777 364.778 290.35 364.788C291.72 364.809 293.077 364.821 294.401 364.829C294.888 364.829 295.334 364.833 295.745 364.833H296.107C297.624 364.831 298.573 364.819 298.8 364.817C298.841 364.824 298.889 364.817 298.939 364.807C301.348 364.181 303.759 363.554 306.149 362.86C306.161 362.858 306.17 362.855 306.18 362.851C306.269 362.827 306.358 362.8 306.447 362.774C308.89 362.063 311.308 361.28 313.707 360.434C316.087 359.596 318.431 358.673 320.765 357.716C321.781 357.3 323.029 356.859 324.046 357.521C324.467 357.796 324.742 358.22 324.718 358.724C324.698 359.16 324.429 359.586 324.12 359.919C323.74 360.328 323.282 360.636 322.803 360.921C322.285 361.227 321.74 361.487 321.189 361.73C320.071 362.217 318.867 362.569 317.662 362.759C317.39 362.802 317.116 362.824 316.841 362.851H316.831C316.694 362.853 316.595 362.918 316.542 363.01C316.53 363.022 316.523 363.036 316.518 363.051C316.514 363.06 316.509 363.07 316.504 363.082V363.087C316.494 363.106 316.489 363.128 316.487 363.149C316.482 363.169 316.48 363.19 316.48 363.212C316.48 363.229 316.482 363.248 316.485 363.265C316.485 363.27 316.487 363.272 316.487 363.277C316.504 363.393 316.569 363.499 316.685 363.544C316.704 363.557 316.728 363.561 316.752 363.566C316.766 363.571 316.783 363.573 316.798 363.573C316.711 363.576 316.769 363.573 316.815 363.576H316.853C316.892 363.581 316.93 363.581 316.969 363.583C317.048 363.588 317.128 363.593 317.205 363.597C317.381 363.61 317.556 363.622 317.735 363.634C318.067 363.658 318.4 363.684 318.732 363.716C319.387 363.773 320.042 363.843 320.695 363.925C321.998 364.084 323.297 364.291 324.588 364.537C325.209 364.655 325.83 364.776 326.447 364.915C326.975 365.031 327.56 365.123 328.003 365.45C328.389 365.732 328.62 366.252 328.328 366.664C328.049 367.057 327.473 367.233 327.013 367.341C326.372 367.491 325.717 367.57 325.062 367.619C324.698 367.647 324.335 367.664 323.969 367.674C323.798 367.676 323.624 367.679 323.453 367.679C323.359 367.679 323.265 367.679 323.171 367.676C323.138 367.676 323.104 367.672 323.07 367.674C322.694 367.616 322.319 367.561 321.943 367.508C319.813 367.204 317.679 366.937 315.54 366.708C315.275 366.679 315.008 366.652 314.743 366.626C314.548 366.604 314.382 366.804 314.382 366.987C314.382 367.199 314.548 367.327 314.743 367.349C316.759 367.554 318.773 367.792 320.779 368.069C321.495 368.168 322.213 368.269 322.928 368.373C322.964 368.387 323.003 368.394 323.041 368.397C323.053 368.397 323.06 368.397 323.07 368.397H323.075C324.325 368.582 325.57 368.78 326.811 369.004C327.218 369.079 327.637 369.165 327.998 369.37C328.292 369.536 328.528 369.784 328.622 370.1C328.649 370.189 328.661 370.252 328.663 370.315C328.668 370.416 328.666 370.445 328.644 370.524L328.651 370.522Z" fill="#FFCEC7"/>
<path d="M372.14 327.482C370.84 325.603 368.78 324.524 366.494 324.524H324.65C321.81 324.524 319.23 326.309 318.226 328.966L305.686 362.2C305.705 362.197 305.727 362.195 305.746 362.193C305.826 362.183 305.903 362.171 305.975 362.159C306.476 362.017 306.977 361.87 307.476 361.718C310.014 360.949 312.532 360.111 315.022 359.2C316.236 358.755 317.448 358.297 318.647 357.81C319.259 357.562 319.866 357.309 320.475 357.063C321.058 356.825 321.646 356.593 322.272 356.504C322.928 356.413 323.571 356.471 324.17 356.757C324.729 357.025 325.201 357.509 325.377 358.109C325.722 359.294 324.859 360.333 323.985 361.01C323.498 361.385 322.952 361.689 322.405 361.964C321.82 362.255 321.217 362.513 320.606 362.735C320.261 362.857 319.912 362.971 319.558 363.072C320.218 363.139 320.875 363.221 321.53 363.308C322.925 363.498 324.313 363.739 325.693 364.016C326.331 364.144 326.993 364.252 327.613 364.46C328.203 364.657 328.781 365.011 329.048 365.599C329.332 366.228 329.178 366.932 328.648 367.38C328.167 367.787 327.55 367.975 326.941 368.095C326.753 368.134 326.562 368.168 326.37 368.196C326.48 368.213 326.594 368.233 326.704 368.252C327.143 368.327 327.586 368.399 327.998 368.567C328.436 368.743 328.817 369.001 329.087 369.394C329.246 369.628 329.349 369.897 329.381 370.177H359.198L372.918 333.814C373.725 331.672 373.441 329.366 372.14 327.482ZM346.333 349.448C345.143 354.365 341.964 357.916 338.953 357.916C338.659 357.916 338.368 357.882 338.079 357.812C336.472 357.425 335.227 356.018 334.576 353.854C333.945 351.756 333.943 349.178 334.569 346.595C335.195 344.012 336.376 341.721 337.898 340.145C339.466 338.519 341.215 337.84 342.821 338.23C344.43 338.618 345.673 340.025 346.324 342.188C346.955 344.287 346.957 346.865 346.333 349.448Z" fill="#EAA24B"/>
<path d="M302.263 363.181C301.112 363.484 299.958 363.788 298.809 364.094H298.804C298.626 364.094 297.892 364.103 296.706 364.108C296.521 364.111 296.321 364.111 296.114 364.111C295.75 364.111 295.35 364.108 294.919 364.108L295.312 362.993C295.806 363.012 296.302 363.036 296.793 363.058C296.885 363.063 296.976 363.065 297.068 363.07C298.778 363.147 300.524 363.219 302.263 363.181Z" fill="#FFCEC7"/>
<path d="M302.984 362.434C300.931 362.523 298.848 362.426 296.822 362.335C296.381 362.315 295.941 362.294 295.495 362.277C295.541 361.638 295.179 361.01 294.57 360.737L291.453 359.357C288.476 358.037 285.395 356.738 282.415 355.483C271.234 350.77 259.679 345.896 249.982 338.543H249.98V338.538C249.64 337.813 249.295 337.117 248.953 336.469C247.503 333.715 245.856 331.325 243.922 329.159C243.069 328.205 242.158 327.282 241.214 326.42C241.202 326.408 241.19 326.398 241.178 326.386C241.168 326.376 241.156 326.367 241.147 326.357C239.779 325.102 238.285 323.912 236.705 322.816L236.7 322.811L236.604 322.746C236.168 322.445 235.744 322.165 235.315 321.89C235.098 321.751 234.877 321.611 234.658 321.478C234.658 321.476 234.655 321.476 234.653 321.476C234.631 321.457 234.607 321.442 234.581 321.433C234.576 321.428 234.571 321.428 234.568 321.425C233.728 320.905 232.822 320.392 231.878 319.898L231.177 315.932C233.492 314.704 235.2 312.697 236.045 310.316C236.859 311.261 237.714 312.234 238.589 313.215C238.646 313.282 238.704 313.347 238.762 313.412L238.863 313.528C245.145 320.544 251.793 327.133 258.627 333.108C258.769 333.231 258.906 333.351 259.048 333.477C272.518 345.198 286.927 354.765 301.873 361.908C302.242 362.084 302.613 362.258 302.984 362.434Z" fill="#D4D8F3"/>
<path d="M235.918 306.816C235.918 307.719 235.797 308.599 235.564 309.437C235.556 309.469 235.547 309.5 235.537 309.531C234.807 312.056 233.056 314.193 230.614 315.41L230.37 315.53L231.175 320.074L227.593 326.849L213.401 319.674C214.039 318.183 214.687 316.051 214.995 314.694C216.229 309.322 214.348 305.587 214.124 305.17C214.116 305.154 214.109 305.141 214.107 305.137C214.056 305.048 213.972 304.987 213.88 304.963C213.868 304.958 213.856 304.956 213.844 304.956C213.796 304.949 213.748 304.951 213.702 304.963C213.358 305.043 213.006 305.091 212.666 305.105C209.988 305.216 207.731 303.38 207.634 301.017C207.55 298.947 209.154 297.109 211.447 296.644L211.736 296.586V296.581C211.763 296.586 211.789 296.589 211.816 296.593C211.816 296.593 211.946 293.779 213.986 290.522C215.86 287.532 218.45 287.038 223.715 289.18C227.487 290.712 231.206 291.17 234.335 289.888C234.875 291.194 235.496 293.086 235.889 295.55V295.555L235.918 306.816Z" fill="#FFCEC7"/>
<path d="M230.696 315.713L231.501 319.423C231.351 319.399 230.891 319.24 230.744 319.211C229.28 318.893 227.849 318.484 226.437 317.995C225.028 317.503 223.607 316.985 222.321 316.207C222.046 316.041 221.779 315.862 221.562 315.624C221.319 315.352 221.097 314.908 221.256 314.537C221.439 314.084 221.962 314.031 222.393 314.055C224.585 314.188 226.659 315.067 228.81 315.405C229.35 315.491 229.894 315.539 230.448 315.535C230.626 315.535 230.812 315.518 230.992 315.527C230.896 315.59 230.797 315.655 230.699 315.718L230.696 315.713Z" fill="#FF9A95"/>
<path d="M380.23 426.285L397.568 458.776L371.809 466.813L354.972 442.807L337.041 421.871C337.041 421.871 337.039 421.866 337.036 421.864L335.509 420.078C333.303 417.5 329.697 416.628 326.542 417.908C325.682 418.252 324.887 418.568 324.114 418.871C321.095 418.098 318.029 417.24 315.001 416.325C296.033 410.586 277.553 402.235 260.068 391.507L265.488 389.297C266.143 390.083 267.116 390.533 268.058 390.533C268.407 390.533 268.749 390.471 269.072 390.343L275.392 387.801C275.811 387.633 276.158 387.36 276.404 387.011C281.701 385.956 286.417 384.619 290.825 382.932C291.531 382.66 291.94 381.92 291.793 381.178C291.723 380.805 291.634 380.342 291.531 379.805L291.415 379.212C291.391 379.089 291.367 378.962 291.345 378.832C291.475 378.8 291.603 378.767 291.731 378.733H342.112C350.092 378.877 357.665 381.516 364.017 386.358L412.061 423.001C401.713 424.67 391.182 425.583 380.743 425.714L370.616 406.736L364.494 395.834C362.053 391.779 358.477 388.623 354.153 386.708C351.325 385.457 348.331 384.802 345.255 384.758L344.877 384.754L338.026 384.761H337.865L301.411 384.799V385.522L344.87 385.476L345.243 385.481C348.223 385.522 351.123 386.158 353.859 387.37C358.048 389.225 361.511 392.28 363.867 396.198L369.983 407.083L380.194 426.215C380.203 426.239 380.215 426.263 380.23 426.285Z" fill="#462B34"/>
<path d="M335.809 421.541C332.297 420.84 328.775 420.047 325.312 419.177C325.793 418.987 326.292 418.787 326.81 418.578C329.679 417.416 332.954 418.207 334.958 420.548L335.809 421.541Z" fill="#D4D8F3"/>
<path d="M290.56 382.257C286.159 383.943 281.438 385.276 276.134 386.326C276.127 386.329 276.117 386.329 276.11 386.331C276.103 386.331 276.096 386.331 276.089 386.336C273.246 386.9 270.199 387.384 267.025 387.779C266.993 387.786 266.957 387.789 266.923 387.791L266.897 387.796C266.362 387.863 265.82 387.928 265.285 387.989C265.259 387.989 265.23 387.989 265.204 387.998C265.199 387.998 265.196 387.998 265.191 388.001C262.301 388.328 259.225 388.601 255.8 388.832C255.489 388.634 255.178 388.434 254.87 388.234L254.764 388.167C231.917 373.347 211.234 354.738 193.281 332.86C193.799 332.204 194.36 331.568 194.951 330.961C197.195 328.67 199.717 326.637 202.454 324.916L211.046 329.675L215.362 340.936L226.787 350.069C222.393 347.881 218.705 345.253 215.56 342.082C215.42 341.94 215.191 341.94 215.049 342.08C214.909 342.22 214.907 342.449 215.049 342.591C218.886 346.46 223.523 349.537 229.22 351.997C229.222 351.999 229.224 351.999 229.227 351.999C229.234 352.004 229.244 352.006 229.251 352.009C229.251 352.011 229.258 352.011 229.26 352.013C230.421 352.517 231.64 352.999 232.895 353.447C232.9 353.449 232.902 353.449 232.905 353.452C234.247 353.934 235.648 354.389 237.072 354.811C237.074 354.811 237.077 354.813 237.079 354.813C238.823 355.331 240.673 355.82 242.742 356.309C243.939 356.589 245.127 356.851 246.266 357.085C246.276 357.085 246.285 357.09 246.297 357.09C246.394 357.111 246.49 357.133 246.586 357.152L246.625 357.16C246.625 357.16 246.635 357.162 246.639 357.162C246.654 357.169 246.668 357.172 246.683 357.172C249.624 357.781 252.628 358.323 255.231 358.786H255.239C255.239 358.786 255.255 358.791 255.265 358.791C255.272 358.791 255.277 358.793 255.284 358.793C255.304 358.798 255.328 358.8 255.359 358.808C255.446 358.82 255.528 358.834 255.614 358.851C255.853 358.894 256.089 358.935 256.327 358.976C266.504 360.759 276.79 362.067 286.892 362.865C287.28 362.896 287.585 363.171 287.658 363.542C287.689 363.715 287.728 363.913 287.771 364.132L287.831 364.44C287.831 364.44 287.831 364.445 287.834 364.45C287.834 364.457 287.836 364.467 287.838 364.474V364.479L288.079 365.732C288.342 367.103 288.672 368.813 289.019 370.606L289.65 373.892C289.96 375.509 290.262 377.07 290.519 378.402L290.526 378.431V378.443L290.56 378.612C290.563 378.626 290.567 378.643 290.57 378.657C290.616 378.894 290.661 379.127 290.705 379.366L290.816 379.942C290.919 380.476 291.011 380.939 291.081 381.312C291.158 381.712 290.938 382.11 290.56 382.257Z" fill="#EAA24B"/>
<path d="M264.89 388.763L259.302 391.04C258.466 390.522 257.637 390.001 256.825 389.486C259.728 389.278 262.38 389.042 264.89 388.763Z" fill="#B9C8FF"/>
<path d="M193.841 206.441C193.567 206.916 193.123 207.253 192.596 207.393L180.287 210.65L180.215 210.667H180.208L127.43 224.634C126.303 224.923 125.204 224.243 124.923 223.178C124.634 222.087 125.289 220.962 126.38 220.675L158.558 212.158C158.58 212.156 158.601 212.151 158.623 212.144L191.548 203.432C191.721 203.386 191.897 203.365 192.071 203.365C192.976 203.365 193.807 203.972 194.051 204.89C194.19 205.417 194.116 205.969 193.841 206.441Z" fill="#5B71D8"/>
<path d="M214.315 314.432C214.308 314.466 214.3 314.499 214.293 314.533C213.98 315.909 213.315 318.094 212.67 319.544C212.051 319.72 211.424 319.918 210.805 320.128C210.227 320.325 209.627 320.544 208.972 320.802C208.495 320.995 208.001 321.2 207.505 321.416C205.728 322.199 203.981 323.12 202.305 324.161C202.276 324.175 202.249 324.192 202.223 324.209C202.223 324.209 202.223 324.21 202.223 324.211C199.381 325.982 196.762 328.083 194.44 330.458C193.869 331.041 193.325 331.658 192.819 332.289C166.131 299.586 146.841 260.616 138.464 222.465L180.113 211.443C188.257 234.162 198.793 255.93 212.306 277.98C212.306 277.98 212.306 277.98 212.308 277.98C210.403 279.233 208.503 281.247 206.641 284.398C196.382 301.769 208.722 311.271 214.317 314.43L214.315 314.432Z" fill="#D4D8F3"/>
<path d="M555.387 353.363H555.385C555.004 353.736 554.499 353.941 553.964 353.941C553.429 353.941 552.882 353.719 552.492 353.317L545.519 346.111L545.509 346.101L544.837 345.407L544.801 345.369L512.459 311.952L501.902 301.043C501.116 300.234 501.138 298.933 501.947 298.147C502.345 297.764 502.86 297.574 503.373 297.574C503.886 297.574 504.443 297.781 504.843 298.195L530.228 324.423C530.228 324.423 530.238 324.435 530.243 324.439L552.983 347.935C552.993 347.947 553.008 347.961 553.02 347.971L555.433 350.467C556.218 351.279 556.197 352.577 555.387 353.363Z" fill="#5B71D8"/>
<path d="M544.813 346.427C518.223 408.01 477.677 481.076 399.579 500.379C332.939 516.849 257.346 493.455 206.994 440.774C152.802 384.077 145.169 301.248 138.432 228.17C138.299 226.739 138.167 225.311 138.036 223.887C142.249 242.561 148.955 261.283 157.988 279.565C167.346 298.511 178.97 316.523 192.539 333.094C192.539 333.094 192.54 333.096 192.544 333.099C210.585 355.134 231.389 373.866 254.376 388.777L254.484 388.847C254.824 389.066 255.166 389.283 255.508 389.505C255.51 389.505 255.51 389.507 255.513 389.507C255.515 389.509 255.52 389.512 255.522 389.512C256.669 390.251 257.861 391.001 259.066 391.743C259.07 391.748 259.075 391.75 259.08 391.752C259.092 391.76 259.104 391.767 259.116 391.774C276.828 402.705 295.555 411.2 314.794 417.018C317.865 417.948 320.977 418.818 324.043 419.604C328.165 420.661 332.378 421.61 336.571 422.432L354.389 443.241L375.448 473.265C375.752 473.689 376.229 473.93 376.727 473.933L379.345 479.38C379.064 480.071 378.999 480.828 379.15 481.555L379.134 481.56L379.242 481.905L379.348 482.249L383.224 494.671V495.11L383.346 495.071L383.871 496.756L384.088 497.445L384.83 499.818L434.843 484.215L435.187 484.107L434.445 481.734L433.614 479.069V478.631L433.486 478.672C432.347 475.313 429.999 472.566 426.841 470.906C425.319 470.109 423.688 469.605 421.99 469.415L421.804 468.822C421.51 467.873 420.496 467.341 419.542 467.635C418.784 467.873 418.273 468.565 418.273 469.36C418.273 469.406 418.273 469.454 418.278 469.499C417.625 469.601 416.97 469.755 416.329 469.955L415.505 470.21C415.067 469.586 414.258 469.287 413.489 469.524C412.738 469.757 412.229 470.444 412.222 471.237L409.452 472.099C409.291 471.865 409.074 471.673 408.814 471.538C408.385 471.314 407.896 471.27 407.436 471.412C406.685 471.646 406.176 472.333 406.169 473.123L403.17 474.058C402.862 473.318 402.327 472.704 401.636 472.292L399.755 466.825L400.456 466.606C400.901 466.464 401.26 466.136 401.436 465.702C401.614 465.269 401.59 464.785 401.369 464.373L381.126 426.431C391.75 426.28 402.472 425.323 412.991 423.586C412.998 423.586 413.003 423.586 413.01 423.586C413.017 423.586 413.024 423.584 413.032 423.581C465.653 414.874 513.577 386.676 544.584 346.193L544.813 346.429V346.427Z" fill="#B9C8FF"/>
<path d="M544.074 345.663C513.206 386.014 465.475 414.13 413.044 422.842L364.453 385.783C359.802 382.236 354.51 379.851 348.885 378.733H352.221C354.066 378.733 355.83 378.068 357.21 376.856C361.199 377.177 365.226 377.336 369.287 377.336C382.783 377.336 396.641 375.577 410.633 372.079C429.113 367.46 447.532 359.678 465.374 348.952C481.645 339.17 497.393 326.977 512.185 312.714L544.074 345.663Z" fill="#D4D8F3"/>
<path d="M146 70.0012C146 75.3887 142.431 79.9554 137.534 81.4702C136.912 81.6617 136.268 81.8035 135.607 81.893C135.079 81.9627 134.545 82 134 82C133.898 82 133.796 81.9975 133.694 81.995H133.677C127.21 81.8234 122 76.508 122 70.0012C122 63.4945 127.384 58 134 58C140.616 58 146 63.3825 146 70.0012Z" fill="#FCB2B2"/>
<path d="M636.047 176.836C636.047 183.245 630.832 188.459 624.425 188.459C618.018 188.459 612.803 183.245 612.803 176.836C612.803 170.428 618.018 165.212 624.425 165.212C630.832 165.212 636.047 170.425 636.047 176.836Z" fill="#FCB2B2"/>
<path d="M372.242 467.435L376.041 472.849C376.25 473.15 376.629 473.278 376.98 473.169L400.236 465.913C400.477 465.838 400.67 465.662 400.766 465.426C400.863 465.195 400.848 464.93 400.73 464.711L397.912 459.425L372.242 467.433V467.435Z" fill="white"/>
<path d="M433.029 479.507L384.052 494.794L384.577 496.477L433.554 481.191L433.029 479.507Z" fill="#D4D8F3"/>
<path d="M433.72 482.004L384.74 497.282L385.265 498.966L434.244 483.688L433.72 482.004Z" fill="#B9C8FF"/>
<path d="M379.832 481.332L402.464 474.27C401.845 472.885 400.268 472.147 398.782 472.61L381.916 477.872C380.429 478.334 379.553 479.84 379.83 481.332H379.832Z" fill="#D4D8F3"/>
<path d="M377.39 473.791L379.722 478.704C380.18 478.104 380.931 477.422 381.7 477.184L398.565 471.922C399.336 471.681 400.134 471.768 400.851 472.001L398.997 467.05L377.388 473.791H377.39Z" fill="#FFCEC7"/>
<path d="M399.737 468.667L399.619 468.703H399.617L378.155 475.401L377.866 475.492L377.57 475.584L376.936 473.555L377.071 473.514L384.121 471.312L399.279 466.583V466.585L399.737 468.667Z" fill="#FF9A95"/>
<path d="M419.035 469.68L420.899 475.66C421.077 476.231 421.687 476.549 422.258 476.373C422.829 476.195 423.146 475.585 422.971 475.014L421.106 469.034C420.928 468.463 420.319 468.145 419.748 468.321C419.177 468.497 418.859 469.109 419.035 469.68Z" fill="white"/>
<path d="M412.981 471.569L414.845 477.549C415.024 478.12 415.631 478.44 416.204 478.262C416.775 478.084 417.093 477.474 416.917 476.903L415.052 470.923C414.874 470.352 414.265 470.034 413.694 470.21C413.121 470.388 412.805 470.998 412.981 471.569Z" fill="white"/>
<path d="M406.932 473.458L408.796 479.438C408.974 480.009 409.584 480.327 410.155 480.151C410.725 479.973 411.043 479.363 410.868 478.792L409.003 472.812C408.825 472.241 408.216 471.923 407.645 472.099C407.074 472.278 406.756 472.887 406.932 473.458Z" fill="white"/>
<path d="M432.788 478.884L383.817 494.163L381.068 485.355L380.032 482.03L406.295 473.836L408.109 479.652C408.405 480.604 409.421 481.137 410.37 480.84C411.322 480.544 411.854 479.527 411.558 478.578L409.744 472.762L412.348 471.948L414.162 477.764C414.458 478.715 415.472 479.248 416.426 478.951C417.375 478.655 417.907 477.638 417.611 476.689L415.797 470.871L416.539 470.642C417.163 470.447 417.804 470.297 418.444 470.201L420.215 475.877C420.511 476.826 421.525 477.361 422.477 477.062C423.428 476.766 423.96 475.749 423.664 474.8L422.219 470.167C423.712 470.374 425.148 470.837 426.499 471.543C428.708 472.704 430.5 474.429 431.719 476.537C432.148 477.274 432.507 478.06 432.788 478.884Z" fill="#B9C8FF"/>
<path d="M397.68 485.729C399.444 484.687 400.029 482.412 398.986 480.647C397.944 478.883 395.669 478.298 393.906 479.341C392.142 480.383 391.557 482.658 392.599 484.423C393.642 486.187 395.916 486.772 397.68 485.729Z" fill="white"/>
<path d="M432.792 478.885L383.82 494.165L381.072 485.356C384.661 484.349 388.413 486.207 389.808 489.616L431.722 476.538C432.151 477.276 432.51 478.061 432.792 478.885Z" fill="white"/>
<path d="M297.068 363.07C297.056 363.106 297.044 363.145 297.032 363.183L297.017 363.227L296.706 364.108C296.521 364.111 296.321 364.111 296.114 364.111C295.75 364.111 295.35 364.108 294.919 364.108L295.312 362.993C295.806 363.012 296.302 363.036 296.793 363.058C296.885 363.063 296.976 363.065 297.068 363.07Z" fill="#FF9A95"/>
<path d="M292.837 377.696C292.442 377.8 292.042 377.906 291.642 378.009H291.182C290.936 376.737 290.654 375.268 290.363 373.757L289.729 370.471C289.385 368.678 289.055 366.968 288.79 365.597L288.629 364.758C289.204 364.77 289.78 364.78 290.353 364.79L290.447 365.279C290.71 366.65 291.04 368.36 291.387 370.15L292.018 373.439C292.309 374.954 292.591 376.419 292.837 377.696Z" fill="#FF9A95"/>
<path d="M352.224 378.729H290.885C290.686 378.729 290.524 378.568 290.524 378.368C290.524 378.168 290.686 378.006 290.885 378.006H352.224C353.939 378.006 355.582 377.37 356.846 376.214C358.272 374.915 359.089 373.067 359.089 371.14V370.897H329.02C328.821 370.897 328.659 370.735 328.659 370.535C328.659 370.335 328.821 370.174 329.02 370.174H359.811V371.14C359.811 373.27 358.908 375.315 357.333 376.749C355.936 378.026 354.122 378.729 352.224 378.729Z" fill="#462B34"/>
<path d="M359.699 370.897H329.019C328.819 370.897 328.657 370.736 328.657 370.536C328.657 370.336 328.819 370.174 329.019 370.174H359.198L372.915 333.811C373.722 331.672 373.438 329.364 372.137 327.482C370.837 325.6 368.78 324.521 366.491 324.521H324.647C321.807 324.521 319.227 326.306 318.223 328.964L305.411 362.918C305.341 363.105 305.134 363.199 304.946 363.13C304.758 363.06 304.664 362.852 304.734 362.665L304.794 362.503L317.546 328.708C318.654 325.771 321.508 323.798 324.644 323.798H366.489C369.016 323.798 371.292 324.991 372.73 327.07C374.168 329.149 374.481 331.701 373.59 334.067L359.694 370.897H359.699ZM338.955 357.916C338.661 357.916 338.367 357.882 338.08 357.812C336.474 357.422 335.231 356.017 334.578 353.851C333.947 351.753 333.944 349.177 334.571 346.595C335.197 344.012 336.377 341.721 337.897 340.145C339.465 338.519 341.214 337.839 342.823 338.227C344.43 338.618 345.675 340.022 346.325 342.188C346.956 344.284 346.959 346.862 346.333 349.445C345.143 354.362 341.963 357.916 338.952 357.916H338.955ZM341.927 338.844C340.778 338.844 339.559 339.466 338.42 340.646C336.987 342.13 335.871 344.304 335.274 346.763C334.677 349.223 334.677 351.666 335.269 353.642C335.843 355.55 336.902 356.781 338.249 357.106C341.11 357.798 344.418 354.283 345.632 349.271C346.227 346.812 346.229 344.369 345.634 342.393C345.061 340.485 344.001 339.254 342.652 338.926C342.414 338.868 342.17 338.839 341.925 338.839L341.927 338.844Z" fill="#462B34"/>
<path d="M212.616 278.15C212.496 278.15 212.375 278.09 212.308 277.977C198.732 255.826 188.165 233.96 180.002 211.127C179.934 210.939 180.033 210.732 180.221 210.664C180.409 210.597 180.616 210.696 180.684 210.884C188.83 233.671 199.375 255.491 212.924 277.599C213.028 277.77 212.975 277.991 212.804 278.095C212.744 278.131 212.679 278.148 212.616 278.148V278.15Z" fill="#462B34"/>
<path d="M304.437 363.068C304.377 363.068 304.317 363.051 304.264 363.022C303.888 362.851 303.515 362.678 303.139 362.502L303.115 362.49C302.703 362.297 302.289 362.102 301.877 361.907C286.931 354.761 272.522 345.196 259.052 333.475C258.912 333.352 258.773 333.229 258.63 333.106C251.797 327.131 245.149 320.542 238.867 313.526L238.768 313.413C238.71 313.348 238.65 313.281 238.592 313.213C237.566 312.061 236.564 310.917 235.622 309.818C235.492 309.667 235.509 309.438 235.661 309.308C235.813 309.178 236.041 309.197 236.171 309.346C237.111 310.442 238.108 311.582 239.137 312.736C239.197 312.806 239.252 312.869 239.308 312.931L239.406 313.044C245.667 320.039 252.293 326.604 259.103 332.559C259.245 332.682 259.384 332.805 259.524 332.928C272.943 344.606 287.297 354.137 302.185 361.251C302.595 361.447 303.006 361.642 303.418 361.835L303.442 361.847C303.821 362.022 304.199 362.198 304.577 362.369L304.637 362.396L304.666 362.425C304.746 362.492 304.799 362.591 304.799 362.704C304.799 362.904 304.637 363.066 304.437 363.066V363.068Z" fill="#462B34"/>
<path d="M356.592 506.251C336.371 506.251 315.743 502.996 295.454 496.52C278.643 491.152 262.476 483.693 247.402 474.35C232.239 464.951 218.468 453.82 206.471 441.268C193.618 427.822 182.607 412.075 173.748 394.468C165.802 378.673 159.433 361.314 154.276 341.397C144.747 304.593 141.17 265.772 137.711 228.231C137.53 226.272 137.35 224.316 137.169 222.367C137.15 222.167 137.297 221.991 137.494 221.974C137.689 221.957 137.87 222.102 137.887 222.302C138.068 224.251 138.248 226.207 138.429 228.166C145.164 301.244 152.799 384.075 206.991 440.77C257.341 493.451 332.934 516.845 399.576 500.375C477.768 481.048 518.317 407.83 544.907 346.201C544.986 346.018 545.198 345.934 545.381 346.013C545.564 346.093 545.649 346.305 545.569 346.488C527.769 387.746 510.19 418.065 490.248 441.899C477.951 456.596 464.566 468.893 450.458 478.443C434.871 488.998 417.808 496.611 399.747 501.076C385.774 504.528 371.29 506.251 356.59 506.251H356.592Z" fill="#462B34"/>
<path d="M380.528 426.435C380.331 426.435 380.169 426.276 380.167 426.079C380.167 425.879 380.323 425.715 380.523 425.712C391.314 425.59 402.204 424.631 412.892 422.865C465.489 414.165 513.374 385.935 544.266 345.414C544.387 345.255 544.613 345.224 544.772 345.346C544.931 345.467 544.962 345.693 544.84 345.852C513.837 386.521 465.785 414.849 413.007 423.578C402.284 425.351 391.358 426.312 380.528 426.435Z" fill="#462B34"/>
<path d="M336.766 422.46C336.742 422.46 336.72 422.46 336.696 422.452C332.464 421.626 328.208 420.667 324.045 419.6C320.982 418.814 317.867 417.945 314.796 417.015C295.548 411.191 276.803 402.689 259.084 391.749C257.87 390.999 256.671 390.245 255.517 389.503C255.173 389.284 254.831 389.062 254.489 388.843L254.38 388.773C231.394 373.862 210.589 355.13 192.548 333.095C178.977 316.522 167.35 298.512 157.992 279.564C148.704 260.757 141.873 241.485 137.687 222.281C137.643 222.086 137.769 221.893 137.964 221.85C138.159 221.806 138.352 221.931 138.395 222.127C146.763 260.521 166.194 299.768 193.109 332.637C211.105 354.615 231.851 373.296 254.775 388.166L254.884 388.236C255.226 388.455 255.568 388.677 255.912 388.896C257.063 389.636 258.261 390.39 259.47 391.137C277.135 402.043 295.822 410.519 315.013 416.326C318.074 417.253 321.177 418.118 324.233 418.901C328.381 419.966 332.623 420.922 336.841 421.744C337.036 421.783 337.163 421.973 337.127 422.168C337.094 422.341 336.942 422.46 336.773 422.46H336.766Z" fill="#462B34"/>
<path d="M369.289 377.335C365.177 377.335 361.099 377.171 357.06 376.843C356.86 376.827 356.713 376.653 356.73 376.453C356.747 376.253 356.923 376.109 357.12 376.123C374.338 377.518 392.283 375.921 410.464 371.377C445.762 362.554 480.854 342.001 511.949 311.945C512.093 311.805 512.322 311.81 512.459 311.955C512.599 312.099 512.594 312.326 512.45 312.465C497.583 326.837 481.746 339.112 465.378 348.951C447.537 359.677 429.117 367.459 410.637 372.078C396.645 375.576 382.788 377.335 369.289 377.335Z" fill="#462B34"/>
<path d="M126.909 225.425C125.654 225.425 124.553 224.577 124.23 223.365C123.84 221.886 124.724 220.365 126.203 219.975L191.369 202.734C192.843 202.342 194.363 203.226 194.755 204.703C195.146 206.18 194.262 207.7 192.785 208.09L127.617 225.333C127.378 225.394 127.142 225.425 126.909 225.425ZM192.077 203.363C191.904 203.363 191.728 203.385 191.554 203.433L126.389 220.674C125.295 220.963 124.642 222.086 124.931 223.179C125.213 224.244 126.319 224.924 127.439 224.635L192.604 207.391C193.696 207.102 194.348 205.98 194.059 204.888C193.816 203.97 192.985 203.363 192.079 203.363H192.077Z" fill="#462B34"/>
<path d="M553.964 354.663C553.21 354.663 552.502 354.364 551.975 353.822L544.298 345.888L501.384 301.548C500.324 300.452 500.351 298.693 501.447 297.631C502.545 296.568 504.301 296.597 505.363 297.693L555.954 349.965C557.016 351.063 556.987 352.822 555.891 353.882C555.373 354.386 554.689 354.663 553.967 354.663H553.964ZM503.374 297.573C502.861 297.573 502.348 297.763 501.95 298.149C501.141 298.934 501.119 300.233 501.902 301.045L552.493 353.318C552.883 353.718 553.405 353.94 553.964 353.94C554.523 353.94 555.005 353.735 555.385 353.364C556.197 352.579 556.219 351.28 555.434 350.468L504.843 298.197C504.443 297.782 503.908 297.575 503.371 297.575L503.374 297.573Z" fill="#462B34"/>
<path d="M129.347 220C129.347 220 129.34 220 129.337 220C129.146 219.996 128.996 219.868 129 219.713L133.308 82.2723C133.312 82.1194 133.467 82 133.654 82C133.656 82 133.661 82 133.663 82C133.855 82.0037 134.005 82.1324 134 82.2872L129.693 219.728C129.688 219.881 129.534 220 129.347 220Z" fill="#462B34"/>
<path d="M158.63 214C158.45 214 158.293 213.897 158.269 213.758L135.004 82.318C134.977 82.1651 135.116 82.0234 135.319 82.0029C135.522 81.9806 135.705 82.0887 135.732 82.2434L158.997 213.683C159.024 213.836 158.885 213.978 158.682 213.998C158.665 213.998 158.647 214 158.633 214H158.63Z" fill="#462B34"/>
<path d="M187.636 208C187.482 208 187.339 207.924 187.291 207.803L137.016 82.3616C136.958 82.2148 137.064 82.0586 137.255 82.0122C137.446 81.9676 137.649 82.0493 137.71 82.1962L187.984 207.638C188.042 207.784 187.936 207.941 187.745 207.987C187.709 207.994 187.673 208 187.639 208H187.636Z" fill="#462B34"/>
<path d="M553.251 348.054C553.205 348.054 553.157 348.045 553.111 348.025C552.928 347.948 552.839 347.736 552.916 347.553L619.366 187.708C619.443 187.525 619.652 187.436 619.838 187.513C620.021 187.59 620.11 187.802 620.033 187.985L553.583 347.83C553.525 347.97 553.391 348.052 553.248 348.052L553.251 348.054Z" fill="#462B34"/>
<path d="M530.507 324.55C530.44 324.55 530.372 324.531 530.312 324.493C530.143 324.384 530.095 324.162 530.201 323.994L617.79 186.813C617.898 186.644 618.122 186.596 618.288 186.702C618.457 186.81 618.505 187.032 618.399 187.2L530.811 324.382C530.741 324.49 530.625 324.548 530.505 324.548L530.507 324.55Z" fill="#462B34"/>
<path d="M507.948 301.241C507.858 301.241 507.769 301.208 507.699 301.142C507.555 301.005 507.548 300.776 507.685 300.632L616.261 185.589C616.398 185.445 616.627 185.437 616.772 185.575C616.916 185.712 616.923 185.941 616.786 186.086L508.21 301.128C508.14 301.203 508.044 301.241 507.948 301.241Z" fill="#462B34"/>
<path d="M379.744 479.728C379.609 479.728 379.481 479.654 379.418 479.524L376.444 473.334L376.981 473.17L399.657 466.094V466.528L401.682 472.416C401.747 472.604 401.646 472.811 401.458 472.876C401.27 472.942 401.063 472.84 400.998 472.652L399.066 467.036L377.458 473.78L380.069 479.21C380.155 479.391 380.078 479.606 379.9 479.692C379.85 479.716 379.797 479.728 379.744 479.728Z" fill="#462B34"/>
<path d="M384.09 497.443L383.228 494.672V494.352L383.48 494.27L433.618 478.627V479.065L434.449 481.73L384.092 497.441L384.09 497.443ZM384.039 494.853L384.564 496.537L433.543 481.255L433.018 479.569L384.039 494.851V494.853Z" fill="#462B34"/>
<path d="M384.829 499.817L383.871 496.755L384.215 496.647L434.228 481.042L435.186 484.104L434.842 484.213L384.829 499.817ZM384.776 497.23L385.301 498.914L434.281 483.632L433.755 481.948L384.776 497.23Z" fill="#462B34"/>
<path d="M415.351 470.996C415.196 470.996 415.054 470.897 415.006 470.743C414.946 470.552 415.052 470.35 415.245 470.29L416.331 469.95C417.097 469.711 417.88 469.538 418.66 469.439C418.86 469.413 419.038 469.555 419.065 469.752C419.089 469.95 418.949 470.131 418.752 470.157C418.015 470.251 417.273 470.415 416.545 470.641L415.459 470.981C415.423 470.993 415.387 470.998 415.351 470.998V470.996Z" fill="#462B34"/>
<path d="M383.227 495.109V494.671L379.137 481.56L406.435 473.04C406.628 472.98 406.828 473.086 406.888 473.277C406.948 473.467 406.842 473.669 406.652 473.729L380.043 482.032L383.827 494.162L432.801 478.883C431.717 475.71 429.496 473.113 426.509 471.542C424.999 470.749 423.376 470.265 421.687 470.106C421.49 470.087 421.343 469.911 421.362 469.711C421.381 469.513 421.557 469.366 421.757 469.386C423.539 469.557 425.252 470.065 426.847 470.901C430.111 472.616 432.51 475.498 433.606 479.008L433.622 479.061V479.382L433.369 479.464L383.232 495.107L383.227 495.109Z" fill="#462B34"/>
<path d="M409.3 472.886C409.146 472.886 409.004 472.788 408.955 472.633C408.895 472.443 409.001 472.241 409.194 472.18L412.487 471.154C412.677 471.094 412.879 471.2 412.939 471.393C413 471.583 412.894 471.785 412.701 471.845L409.408 472.872C409.372 472.884 409.336 472.889 409.3 472.889V472.886Z" fill="#462B34"/>
<path d="M379.351 482.249L379.242 481.904C378.965 481.017 379.026 480.063 379.413 479.218C379.857 478.244 380.697 477.507 381.716 477.189L398.584 471.925C399.534 471.626 400.627 471.73 401.513 472.219C402.373 472.689 403.007 473.462 403.298 474.399L403.404 474.744L403.06 474.852L379.351 482.251V482.249ZM399.707 472.477C399.396 472.477 399.093 472.522 398.801 472.614L381.933 477.878C381.109 478.133 380.432 478.731 380.073 479.516C379.811 480.09 379.734 480.723 379.849 481.335L402.484 474.271C402.214 473.667 401.759 473.17 401.169 472.85C400.723 472.604 400.22 472.474 399.709 472.474L399.707 472.477Z" fill="#462B34"/>
<path d="M421.944 477.146C421.176 477.146 420.461 476.65 420.22 475.876L418.353 469.884C418.3 469.711 418.273 469.533 418.273 469.354C418.273 468.559 418.784 467.868 419.543 467.632C420.497 467.338 421.511 467.868 421.805 468.819L423.669 474.802C423.813 475.262 423.77 475.751 423.546 476.177C423.322 476.604 422.944 476.919 422.484 477.064C422.306 477.119 422.125 477.146 421.947 477.146H421.944ZM420.078 468.273C419.972 468.273 419.863 468.289 419.755 468.321C419.3 468.463 418.994 468.877 418.994 469.354C418.994 469.465 419.01 469.571 419.044 469.68L419.051 469.704L420.909 475.662C421.087 476.233 421.694 476.553 422.265 476.375C422.542 476.288 422.768 476.1 422.903 475.842C423.038 475.587 423.064 475.293 422.978 475.019L421.113 469.036C420.969 468.574 420.54 468.275 420.078 468.275V468.273Z" fill="#462B34"/>
<path d="M415.893 479.033C415.124 479.033 414.409 478.537 414.166 477.766L412.301 471.786C412.248 471.615 412.219 471.434 412.219 471.246C412.219 470.451 412.73 469.758 413.486 469.521C414.44 469.225 415.454 469.758 415.748 470.709L417.615 476.689C417.909 477.641 417.376 478.657 416.43 478.954C416.252 479.009 416.071 479.036 415.893 479.036V479.033ZM414.023 470.162C413.917 470.162 413.809 470.179 413.701 470.211C413.245 470.353 412.942 470.769 412.942 471.246C412.942 471.36 412.959 471.466 412.99 471.569L414.854 477.552C415.033 478.123 415.642 478.443 416.213 478.262C416.781 478.084 417.102 477.474 416.926 476.903L415.059 470.924C414.915 470.461 414.486 470.162 414.023 470.162Z" fill="#462B34"/>
<path d="M409.844 480.923C409.074 480.923 408.358 480.427 408.115 479.656L406.251 473.676C406.198 473.505 406.169 473.324 406.169 473.136C406.169 472.341 406.679 471.647 407.436 471.411C407.896 471.267 408.385 471.313 408.813 471.537C409.242 471.761 409.555 472.139 409.7 472.599L411.564 478.579C411.858 479.531 411.326 480.545 410.379 480.844C410.201 480.899 410.023 480.926 409.844 480.926V480.923ZM407.975 472.052C407.867 472.052 407.758 472.069 407.652 472.103C407.197 472.245 406.891 472.659 406.891 473.139C406.891 473.252 406.908 473.36 406.939 473.462L408.804 479.444C408.982 480.012 409.592 480.333 410.162 480.155C410.731 479.976 411.049 479.367 410.873 478.796L409.009 472.816C408.922 472.539 408.734 472.312 408.476 472.18C408.32 472.098 408.146 472.055 407.975 472.055V472.052Z" fill="#462B34"/>
<path d="M314.773 371.079C317.969 371.407 321.127 372.238 324.065 373.534C324.434 373.698 324.8 373.867 325.161 374.043C325.496 374.207 325.855 374.366 326.151 374.594C326.373 374.768 326.58 375.026 326.607 375.298C326.636 375.575 326.489 375.775 326.248 375.905C325.973 376.057 325.612 376.055 325.287 376.014C324.86 375.958 324.436 375.857 324.015 375.775C323.155 375.606 322.293 375.44 321.433 375.272C319.494 374.896 317.557 374.52 315.621 374.142C315.43 374.105 315.23 374.195 315.175 374.395C315.127 374.573 315.235 374.802 315.428 374.84C317.268 375.199 319.108 375.556 320.949 375.915C321.849 376.091 322.748 376.264 323.649 376.44C324.102 376.529 324.555 376.628 325.012 376.7C325.446 376.768 325.908 376.811 326.33 376.659C326.681 376.532 327.016 376.303 327.19 375.961C327.385 375.577 327.363 375.149 327.19 374.761C326.85 373.992 325.988 373.64 325.277 373.301C323.728 372.561 322.119 371.944 320.472 371.465C318.61 370.923 316.7 370.557 314.77 370.359C314.575 370.34 314.409 370.54 314.409 370.72C314.409 370.932 314.575 371.063 314.77 371.082L314.773 371.079Z" fill="#462B34"/>
<path d="M294.802 376.722C297.654 376.982 300.489 377.423 303.353 377.546C306.108 377.664 308.849 377.283 311.487 376.481C312.224 376.257 312.954 376.004 313.672 375.722C314.035 375.578 314.399 375.426 314.756 375.267C314.936 375.187 315.119 375.103 315.298 375.019C315.459 374.944 315.678 374.874 315.808 374.751L315.456 374.845C316.564 375.062 317.67 375.276 318.778 375.493C318.968 375.532 319.168 375.438 319.224 375.24C319.272 375.062 319.164 374.833 318.971 374.795C318.157 374.636 317.345 374.474 316.531 374.318C316.343 374.281 316.155 374.245 315.967 374.207C315.878 374.19 315.791 374.171 315.702 374.154C315.635 374.142 315.575 374.127 315.505 374.137C315.457 374.137 315.411 374.154 315.37 374.18C315.295 374.25 315.276 374.26 315.317 374.207C314.963 374.363 314.616 374.542 314.262 374.696C312.821 375.325 311.318 375.823 309.791 376.192C308.283 376.556 306.744 376.78 305.19 376.833C303.577 376.888 301.953 376.756 300.349 376.594C298.499 376.409 296.654 376.163 294.804 375.994C294.609 375.978 294.443 376.173 294.443 376.356C294.443 376.565 294.609 376.7 294.804 376.717L294.802 376.722Z" fill="#462B34"/>
<path d="M314.755 367.349C316.771 367.556 318.785 367.794 320.791 368.069C322.805 368.346 324.824 368.64 326.823 369.004C327.23 369.078 327.647 369.163 328.01 369.368C328.304 369.534 328.54 369.782 328.634 370.1C328.661 370.187 328.673 370.252 328.675 370.312C328.68 370.413 328.675 370.442 328.656 370.522C328.617 370.664 328.552 370.755 328.446 370.854C328.425 370.876 328.377 370.909 328.309 370.948C328.218 371.001 328.22 370.999 328.119 371.032C328.044 371.056 327.967 371.076 327.89 371.093C327.798 371.112 327.748 371.117 327.685 371.124C327.29 371.162 326.895 371.129 326.5 371.105L324.944 371.008L321.861 370.815C319.804 370.688 317.749 370.558 315.692 370.43C315.432 370.413 315.174 370.396 314.914 370.382C314.719 370.37 314.553 370.558 314.553 370.743C314.553 370.948 314.719 371.093 314.914 371.105C317.07 371.24 319.226 371.374 321.382 371.509C322.458 371.577 323.537 371.644 324.614 371.712C325.154 371.745 325.691 371.779 326.23 371.813C326.666 371.839 327.105 371.885 327.541 371.861C328.312 371.818 329.212 371.505 329.369 370.637C329.446 370.206 329.335 369.758 329.087 369.399C328.817 369.006 328.437 368.748 327.998 368.572C327.584 368.404 327.141 368.332 326.705 368.257C326.177 368.168 325.65 368.079 325.122 367.994C324.067 367.823 323.01 367.664 321.952 367.512C319.823 367.209 317.689 366.941 315.55 366.713C315.285 366.684 315.018 366.657 314.753 366.628C314.558 366.609 314.391 366.809 314.391 366.99C314.391 367.202 314.558 367.332 314.753 367.351L314.755 367.349Z" fill="#462B34"/>
<path d="M298.947 364.802C300.293 364.446 301.642 364.091 302.991 363.735C303.439 363.617 303.249 362.918 302.798 363.039C301.452 363.395 300.103 363.749 298.754 364.106C298.306 364.224 298.496 364.923 298.947 364.802Z" fill="#462B34"/>
<path d="M298.949 364.806C301.459 364.153 303.969 363.5 306.457 362.772C308.898 362.059 311.318 361.276 313.715 360.433C316.095 359.595 318.438 358.672 320.773 357.715C321.791 357.299 323.037 356.858 324.053 357.52C324.475 357.795 324.749 358.219 324.728 358.722C324.708 359.159 324.436 359.585 324.13 359.917C323.75 360.327 323.292 360.638 322.813 360.92C322.292 361.228 321.75 361.488 321.199 361.729C320.081 362.218 318.877 362.568 317.673 362.758C317.4 362.801 317.126 362.823 316.851 362.85C316.656 362.869 316.49 363.001 316.49 363.211C316.49 363.392 316.656 363.592 316.851 363.572C317.492 363.507 318.123 363.425 318.752 363.281C319.38 363.136 319.999 362.951 320.604 362.732C321.218 362.51 321.82 362.254 322.403 361.961C322.95 361.686 323.499 361.382 323.986 361.006C324.86 360.332 325.722 359.291 325.378 358.106C325.202 357.503 324.73 357.022 324.174 356.754C323.571 356.465 322.931 356.407 322.276 356.501C321.649 356.59 321.062 356.822 320.479 357.058C319.869 357.306 319.262 357.559 318.65 357.805C317.451 358.291 316.239 358.749 315.023 359.195C312.532 360.105 310.015 360.946 307.479 361.712C304.916 362.486 302.329 363.17 299.739 363.849C299.412 363.936 299.087 364.02 298.759 364.105C298.309 364.223 298.499 364.919 298.952 364.801L298.949 364.806Z" fill="#462B34"/>
<path d="M316.842 363.571C316.673 363.571 316.822 363.571 316.861 363.571C316.9 363.576 316.94 363.576 316.979 363.579C317.058 363.584 317.136 363.588 317.215 363.593C317.391 363.605 317.567 363.617 317.745 363.629C318.077 363.653 318.41 363.68 318.742 363.711C319.397 363.769 320.053 363.839 320.705 363.921C322.008 364.082 323.307 364.287 324.598 364.533C325.219 364.651 325.841 364.774 326.46 364.911C326.985 365.029 327.57 365.118 328.013 365.446C328.399 365.73 328.63 366.248 328.339 366.66C328.059 367.053 327.483 367.229 327.023 367.337C326.383 367.487 325.728 367.566 325.072 367.617C324.709 367.643 324.345 367.662 323.979 367.67C323.808 367.674 323.634 367.677 323.463 367.674C323.369 367.674 323.275 367.674 323.181 367.672C323.145 367.672 323.107 367.667 323.071 367.672C323.039 367.677 323.006 367.682 322.974 367.684C323.063 367.677 323.09 367.672 323.054 367.67C322.859 367.658 322.692 367.846 322.692 368.031C322.692 368.236 322.859 368.38 323.054 368.392C323.078 368.392 323.088 368.388 323.116 368.388C323.246 368.383 323.075 368.368 323.155 368.395C323.222 368.419 323.336 368.397 323.408 368.397C323.579 368.397 323.752 368.397 323.923 368.392C324.27 368.385 324.615 368.364 324.959 368.344C325.622 368.308 326.291 368.221 326.942 368.091C327.551 367.968 328.168 367.783 328.649 367.373C329.177 366.928 329.331 366.224 329.047 365.593C328.782 365.005 328.201 364.651 327.611 364.453C326.992 364.246 326.33 364.138 325.691 364.01C324.311 363.733 322.924 363.492 321.529 363.304C320.739 363.196 319.944 363.102 319.149 363.025C318.749 362.986 318.347 362.95 317.947 362.921C317.752 362.907 317.555 362.892 317.36 362.88C317.261 362.873 317.164 362.868 317.066 362.861C317.027 362.861 316.986 362.856 316.948 362.854C316.909 362.849 316.909 362.851 316.945 362.858C316.909 362.849 316.875 362.844 316.839 362.846C316.374 362.854 316.374 363.576 316.839 363.569L316.842 363.571Z" fill="#462B34"/>
<path d="M259.272 391.805C259.13 391.805 258.995 391.72 258.937 391.581C258.863 391.395 258.952 391.186 259.135 391.108L265.47 388.526C265.655 388.449 265.865 388.54 265.942 388.723C266.017 388.909 265.927 389.118 265.744 389.196L259.409 391.778C259.364 391.798 259.318 391.805 259.272 391.805Z" fill="#462B34"/>
<path d="M268.06 390.532C267.029 390.532 265.962 389.992 265.312 389.067C265.268 389.009 265.223 388.937 265.179 388.867L264.982 388.537C264.878 388.366 264.936 388.144 265.107 388.041C265.278 387.937 265.5 387.993 265.603 388.166L265.801 388.496C265.83 388.547 265.861 388.595 265.897 388.643C266.574 389.607 267.848 390.055 268.804 389.672L275.125 387.13C275.448 387 275.708 386.781 275.876 386.501C275.98 386.33 276.202 386.275 276.373 386.378C276.544 386.482 276.599 386.704 276.495 386.875C276.245 387.291 275.864 387.612 275.392 387.802L269.072 390.344C268.749 390.474 268.407 390.534 268.058 390.534L268.06 390.532Z" fill="#462B34"/>
<path d="M231.552 320.495C231.381 320.495 231.227 320.372 231.196 320.196L230.37 315.529L230.611 315.409C233.891 313.773 235.924 310.479 235.915 306.815L235.883 294.243C235.871 289.044 232.357 284.534 227.34 283.279C222.37 282.036 218.43 283.161 215.293 286.719C213 289.321 211.736 292.718 211.733 296.286V296.583L211.444 296.64C209.151 297.105 207.547 298.944 207.631 301.013C207.677 302.15 208.221 303.201 209.161 303.972C210.112 304.753 211.355 305.155 212.663 305.102C213.005 305.087 213.357 305.039 213.706 304.957C213.901 304.912 214.096 305.032 214.14 305.227C214.185 305.422 214.065 305.615 213.87 305.661C213.477 305.752 213.08 305.808 212.692 305.825C211.213 305.887 209.792 305.425 208.703 304.531C207.6 303.627 206.964 302.389 206.909 301.042C206.815 298.705 208.525 296.626 211.013 295.997C211.083 292.359 212.405 288.904 214.752 286.24C218.037 282.513 222.329 281.279 227.515 282.575C232.853 283.91 236.591 288.707 236.606 294.238L236.637 306.81C236.647 310.662 234.561 314.129 231.174 315.929L231.907 320.068C231.94 320.266 231.81 320.451 231.615 320.487C231.593 320.492 231.572 320.492 231.552 320.492V320.495Z" fill="#462B34"/>
<path d="M209.328 301.654C209.289 301.654 209.248 301.646 209.21 301.634C209.022 301.569 208.921 301.364 208.986 301.174C209.578 299.449 211.455 299.37 212.358 299.329C212.558 299.321 212.726 299.476 212.734 299.673C212.743 299.873 212.587 300.042 212.389 300.049C211.016 300.109 210.029 300.362 209.67 301.405C209.619 301.555 209.477 301.649 209.328 301.649V301.654Z" fill="#462B34"/>
<path d="M212.08 302.39C212.058 302.39 212.037 302.39 212.015 302.385C211.006 302.204 210.151 301.378 209.934 300.376C209.89 300.181 210.016 299.988 210.211 299.947C210.406 299.904 210.599 300.029 210.64 300.224C210.796 300.947 211.413 301.544 212.143 301.674C212.34 301.71 212.47 301.898 212.434 302.094C212.403 302.269 212.251 302.39 212.08 302.39Z" fill="#462B34"/>
<path d="M225.927 302.828C225.903 302.828 225.879 302.828 225.855 302.828C225.383 302.804 224.964 302.58 224.627 302.402C224.451 302.308 224.383 302.089 224.477 301.913C224.571 301.737 224.788 301.669 224.966 301.763C225.27 301.925 225.583 302.091 225.896 302.108C226.118 302.12 226.397 302.014 226.465 301.816C226.537 301.597 226.366 301.296 226.202 301.033L225.068 299.224C224.962 299.055 225.012 298.831 225.181 298.725C225.349 298.619 225.573 298.67 225.679 298.838L226.814 300.648C226.997 300.939 227.337 301.481 227.151 302.043C226.978 302.568 226.419 302.831 225.93 302.831L225.927 302.828Z" fill="#462B34"/>
<path d="M225.895 308.438C224.194 308.438 222.501 307.64 221.429 306.318C221.304 306.163 221.328 305.935 221.482 305.809C221.636 305.684 221.865 305.708 221.99 305.862C222.973 307.072 224.548 307.778 226.104 307.71C227.66 307.64 229.168 306.795 230.038 305.501C230.149 305.335 230.373 305.291 230.539 305.402C230.705 305.513 230.748 305.737 230.638 305.903C229.643 307.382 227.918 308.351 226.138 308.431C226.059 308.435 225.977 308.435 225.897 308.435L225.895 308.438Z" fill="#462B34"/>
<path d="M376.732 473.929C376.231 473.929 375.75 473.689 375.448 473.262L354.389 443.238L334.96 420.55C332.956 418.208 329.68 417.415 326.811 418.579C325.908 418.945 325.075 419.275 324.263 419.591C324.077 419.663 323.868 419.572 323.796 419.384C323.723 419.198 323.815 418.989 324.003 418.916C324.812 418.603 325.643 418.273 326.542 417.909C329.697 416.63 333.303 417.502 335.509 420.08L337.036 421.865L354.972 442.809L376.041 472.848C376.253 473.149 376.631 473.279 376.978 473.173L400.239 465.914C400.478 465.839 400.67 465.661 400.767 465.427C400.863 465.193 400.849 464.933 400.73 464.712L369.981 407.084L363.867 396.199C361.509 392.282 358.048 389.227 353.859 387.372C351.12 386.16 348.223 385.524 345.243 385.483L344.87 385.478L301.411 385.524C301.211 385.524 301.05 385.362 301.05 385.162C301.05 384.962 301.211 384.801 301.411 384.801L337.865 384.765H338.026L344.877 384.755L345.255 384.76C348.331 384.803 351.325 385.461 354.153 386.712C358.479 388.627 362.054 391.783 364.494 395.838L370.617 406.74L401.371 464.374C401.59 464.786 401.614 465.271 401.439 465.704C401.26 466.138 400.904 466.466 400.458 466.608L399.403 466.938L377.195 473.867C377.043 473.913 376.889 473.937 376.735 473.937L376.732 473.929Z" fill="#A99199"/>
<path d="M412.946 423.586C412.869 423.586 412.792 423.561 412.727 423.511L364.013 386.358C357.661 381.515 350.088 378.879 342.108 378.732C341.978 378.727 341.857 378.725 341.734 378.725L341.354 378.72C341.154 378.715 340.995 378.551 341 378.352C341.005 378.154 341.164 377.997 341.361 377.997H341.368L341.742 378.002C341.862 377.995 341.997 378.002 342.129 378.009C350.256 378.159 357.976 380.848 364.451 385.784L413.165 422.937C413.324 423.058 413.356 423.284 413.233 423.443C413.163 423.537 413.054 423.586 412.946 423.586Z" fill="#462B34"/>
<path d="M360.295 401.81C360.156 401.81 360.021 401.728 359.963 401.591C357.272 395.314 350.887 390.807 344.073 390.375C343.873 390.363 343.723 390.192 343.735 389.992C343.747 389.792 343.914 389.638 344.118 389.655C351.198 390.103 357.831 394.784 360.625 401.306C360.705 401.489 360.618 401.701 360.435 401.781C360.389 401.8 360.341 401.81 360.293 401.81H360.295Z" fill="#A99199"/>
<path d="M357.315 407.78C357.178 407.78 357.045 407.7 356.985 407.568C355.147 403.513 351.792 400.084 347.776 398.162C347.596 398.075 347.521 397.861 347.608 397.68C347.694 397.499 347.909 397.425 348.089 397.511C352.254 399.506 355.737 403.065 357.645 407.271C357.727 407.452 357.645 407.666 357.464 407.751C357.416 407.772 357.366 407.782 357.315 407.782V407.78Z" fill="#A99199"/>
<path d="M371.659 467.598C371.505 467.598 371.363 467.499 371.315 467.345C371.255 467.155 371.361 466.952 371.553 466.892L397.982 458.645C398.172 458.585 398.375 458.691 398.435 458.884C398.495 459.074 398.389 459.276 398.196 459.337L371.768 467.583C371.732 467.596 371.696 467.6 371.659 467.6V467.598Z" fill="#A99199"/>
<path d="M291.696 378.73H290.884C290.684 378.73 290.523 378.568 290.523 378.368C290.523 378.168 290.684 378.007 290.884 378.007L341.364 377.997C341.564 377.997 341.725 378.159 341.725 378.359C341.725 378.559 341.564 378.72 341.364 378.72L291.696 378.73Z" fill="#462B34"/>
<path d="M255.319 358.795C255.145 358.795 254.994 358.672 254.962 358.496L254.731 357.164C254.589 356.345 254.466 355.639 254.454 355.576C253.25 350.061 251.797 344.226 249.362 338.926C249.018 338.181 248.666 337.468 248.317 336.806C246.893 334.103 245.279 331.761 243.386 329.641C242.536 328.689 241.63 327.773 240.693 326.916C239.361 325.692 237.906 324.528 236.369 323.458L236.287 323.403C235.827 323.085 235.382 322.789 234.926 322.497C234.7 322.353 234.474 322.21 234.245 322.071C233.354 321.521 232.392 320.977 231.386 320.454C231.21 320.362 231.14 320.143 231.231 319.967C231.323 319.789 231.542 319.722 231.718 319.813C232.739 320.346 233.717 320.897 234.621 321.456C234.852 321.598 235.083 321.743 235.314 321.89C235.745 322.165 236.169 322.446 236.605 322.745L236.702 322.81C238.296 323.916 239.802 325.118 241.182 326.386C242.136 327.258 243.061 328.193 243.925 329.161C245.86 331.325 247.505 333.715 248.957 336.471C249.314 337.143 249.67 337.868 250.02 338.625C252.484 343.988 253.948 349.866 255.162 355.422C255.172 355.463 255.227 355.786 255.446 357.041L255.678 358.373C255.711 358.571 255.581 358.757 255.384 358.79C255.362 358.795 255.343 358.795 255.321 358.795H255.319Z" fill="#462B34"/>
<path d="M255.709 389.561C255.521 389.561 255.362 389.414 255.348 389.224C255.336 389.024 255.485 388.853 255.685 388.838C259.18 388.605 262.309 388.328 265.25 387.993C265.801 387.93 266.353 387.865 266.902 387.795H266.929C266.962 387.788 266.996 387.785 267.03 387.781C270.212 387.383 273.264 386.896 276.116 386.333C281.429 385.28 286.158 383.948 290.566 382.256C290.944 382.109 291.163 381.714 291.086 381.314C291.016 380.941 290.925 380.478 290.821 379.943L290.71 379.368C290.664 379.122 290.619 378.883 290.57 378.64L290.525 378.404C290.267 377.074 289.966 375.51 289.655 373.894L289.022 370.607C288.675 368.815 288.347 367.104 288.082 365.733L287.774 364.134C287.731 363.917 287.692 363.719 287.661 363.546C287.591 363.172 287.282 362.9 286.897 362.869C276.792 362.071 266.51 360.763 256.333 358.98C256.094 358.939 255.856 358.898 255.62 358.855C255.533 358.838 255.451 358.824 255.364 358.812C255.321 358.802 255.295 358.8 255.271 358.795C252.652 358.33 249.622 357.785 246.662 357.171L246.589 357.156C246.483 357.135 246.375 357.113 246.269 357.089C245.13 356.855 243.942 356.595 242.745 356.313C240.678 355.824 238.826 355.335 237.085 354.819C235.659 354.398 234.254 353.94 232.91 353.456C231.638 353 230.398 352.511 229.225 352.001C223.526 349.541 218.891 346.464 215.052 342.595C214.912 342.453 214.912 342.224 215.052 342.084C215.194 341.942 215.423 341.944 215.563 342.084C219.335 345.886 223.897 348.912 229.509 351.336C230.67 351.839 231.894 352.323 233.151 352.772C234.483 353.249 235.873 353.704 237.287 354.121C239.016 354.634 240.854 355.118 242.909 355.605C244.099 355.884 245.279 356.145 246.418 356.378C246.529 356.402 246.633 356.424 246.736 356.446L246.809 356.46C249.759 357.072 252.782 357.614 255.384 358.077C255.413 358.082 255.456 358.086 255.497 358.096C255.572 358.108 255.663 358.123 255.752 358.139C255.983 358.183 256.217 358.224 256.456 358.262C266.611 360.04 276.872 361.346 286.955 362.141C287.658 362.201 288.239 362.719 288.371 363.406C288.403 363.58 288.441 363.775 288.484 363.992L288.793 365.594C289.055 366.965 289.385 368.673 289.732 370.468L290.366 373.754C290.679 375.383 290.982 376.958 291.24 378.298L291.279 378.5C291.327 378.741 291.373 378.982 291.413 379.208L291.529 379.801C291.633 380.338 291.724 380.803 291.794 381.174C291.939 381.917 291.532 382.656 290.823 382.928C286.374 384.634 281.61 385.979 276.253 387.039C273.387 387.607 270.315 388.096 267.129 388.494C267.095 388.499 267.049 388.503 267.003 388.508C266.437 388.581 265.881 388.646 265.329 388.708C262.379 389.046 259.238 389.325 255.731 389.559C255.723 389.559 255.714 389.559 255.706 389.559L255.709 389.561Z" fill="#462B34"/>
<path d="M192.821 333.228C192.744 333.228 192.666 333.203 192.599 333.153C192.44 333.03 192.411 332.804 192.534 332.647C193.117 331.893 193.755 331.156 194.434 330.459C196.769 328.074 199.399 325.966 202.251 324.19C203.942 323.14 205.707 322.208 207.502 321.417C207.996 321.2 208.489 320.996 208.971 320.803C209.626 320.545 210.224 320.326 210.802 320.128C211.476 319.899 212.158 319.685 212.83 319.497C213.023 319.444 213.223 319.555 213.276 319.748C213.331 319.94 213.218 320.14 213.025 320.193C212.365 320.379 211.695 320.589 211.033 320.815C210.465 321.008 209.877 321.225 209.236 321.478C208.764 321.665 208.277 321.87 207.791 322.082C206.03 322.858 204.293 323.776 202.631 324.807C199.828 326.551 197.243 328.623 194.95 330.965C194.29 331.642 193.668 332.358 193.105 333.09C193.035 333.182 192.927 333.23 192.818 333.23L192.821 333.228Z" fill="#462B34"/>
<path d="M227.899 327.812L212.78 320.169C212.657 320.112 212.57 319.986 212.57 319.842C212.57 319.642 212.731 319.48 212.931 319.48H213.02L227.593 326.846L231.235 319.962C231.329 319.786 231.548 319.719 231.724 319.813C231.9 319.907 231.967 320.126 231.874 320.302L227.901 327.812H227.899Z" fill="#462B34"/>
<path d="M294.406 364.827C294.368 364.827 294.327 364.82 294.286 364.808C294.098 364.743 293.999 364.536 294.064 364.348L294.731 362.449C294.876 362.037 294.678 361.575 294.278 361.396L291.162 360.016C288.189 358.7 285.111 357.402 282.134 356.147C270.885 351.405 259.253 346.5 249.469 339.06C249.31 338.94 249.279 338.713 249.399 338.554C249.519 338.395 249.746 338.364 249.905 338.484C259.617 345.871 271.205 350.757 282.411 355.482C285.39 356.737 288.471 358.035 291.451 359.356L294.567 360.736C295.309 361.066 295.68 361.924 295.41 362.688L294.743 364.586C294.69 364.736 294.551 364.827 294.401 364.827H294.406Z" fill="#462B34"/>
<path d="M295.749 364.832C295.337 364.832 294.889 364.832 294.402 364.828C292.384 364.818 290.29 364.791 288.18 364.746C287.98 364.741 287.821 364.577 287.826 364.377C287.831 364.177 287.995 364.018 288.195 364.023C290.3 364.066 292.391 364.095 294.405 364.105C295.036 364.107 295.602 364.11 296.107 364.107C297.844 364.107 298.832 364.088 298.841 364.088H298.849C299.046 364.088 299.205 364.245 299.21 364.442C299.212 364.642 299.056 364.806 298.856 364.811C298.846 364.811 297.854 364.828 296.11 364.83C295.992 364.83 295.871 364.83 295.749 364.83V364.832Z" fill="#462B34"/>
<path d="M290.926 378.929C290.764 378.929 290.617 378.821 290.576 378.657C290.526 378.464 290.644 378.267 290.837 378.216C293.202 377.612 295.507 376.975 297.694 376.33C297.887 376.274 298.087 376.383 298.142 376.573C298.198 376.763 298.089 376.966 297.899 377.021C295.705 377.669 293.39 378.305 291.017 378.915C290.988 378.922 290.957 378.927 290.928 378.927L290.926 378.929Z" fill="#462B34"/>
<path d="M229.363 352.027C229.283 352.027 229.204 352.001 229.136 351.947L215.361 340.935L211.044 329.671L202.265 324.81C202.091 324.713 202.026 324.494 202.122 324.318C202.219 324.145 202.44 324.082 202.614 324.176L211.622 329.165L215.963 340.491L229.587 351.381C229.743 351.507 229.767 351.733 229.645 351.89C229.572 351.979 229.469 352.025 229.363 352.025V352.027Z" fill="#462B34"/>
<path d="M233.034 353.473C232.913 353.473 232.793 353.412 232.726 353.299C223.305 337.918 214.54 327.455 208.845 321.386C208.708 321.241 208.715 321.012 208.862 320.875C209.007 320.738 209.236 320.745 209.373 320.892C215.091 326.985 223.888 337.489 233.342 352.923C233.446 353.094 233.393 353.316 233.222 353.42C233.164 353.456 233.099 353.473 233.034 353.473Z" fill="#462B34"/>
<path d="M246.736 357.176C246.539 357.176 246.377 357.017 246.375 356.817L246.214 335.69L240.269 328.689L240.582 326.595C240.611 326.397 240.794 326.26 240.994 326.291C241.191 326.32 241.326 326.506 241.297 326.703L241.032 328.472L246.936 335.425L247.1 356.814C247.1 357.014 246.941 357.176 246.741 357.178H246.739L246.736 357.176Z" fill="#462B34"/>
<path d="M246.345 357.095C246.188 357.095 246.044 356.994 245.998 356.835C242.257 344.172 236.204 323.414 236.144 323.206C236.089 323.016 236.199 322.814 236.39 322.758C236.58 322.703 236.782 322.811 236.838 323.004C236.898 323.211 242.951 343.967 246.689 356.63C246.745 356.821 246.636 357.023 246.446 357.078C246.412 357.088 246.376 357.093 246.342 357.093L246.345 357.095Z" fill="#462B34"/>
<path d="M227.168 337.506C227.007 337.506 226.852 337.441 226.737 337.323L210.663 320.721C210.524 320.576 210.528 320.35 210.671 320.21C210.813 320.07 211.041 320.075 211.181 320.217L227.091 336.648L228.269 329.931C228.305 329.719 228.447 329.548 228.647 329.474C228.847 329.396 229.066 329.43 229.235 329.563L234.649 333.837L234.076 321.776C234.067 321.576 234.221 321.407 234.421 321.398C234.62 321.386 234.789 321.542 234.799 321.742L235.386 334.068C235.399 334.307 235.273 334.523 235.061 334.632C234.849 334.74 234.599 334.716 234.413 334.569L228.95 330.257L227.768 337.007C227.729 337.231 227.568 337.412 227.351 337.48C227.293 337.496 227.233 337.506 227.173 337.506H227.168Z" fill="#462B34"/>
<path d="M231.806 336.798C231.688 336.798 231.569 336.762 231.468 336.692L227.742 334.16C227.576 334.047 227.535 333.823 227.646 333.659C227.756 333.493 227.983 333.452 228.147 333.563L231.712 335.984L232.133 332.551C232.157 332.353 232.335 332.216 232.535 332.235C232.733 332.259 232.875 332.44 232.851 332.638L232.405 336.266C232.379 336.476 232.249 336.654 232.056 336.741C231.977 336.777 231.89 336.796 231.806 336.796V336.798Z" fill="#462B34"/>
<path d="M237.185 354.829C237.033 354.829 236.893 354.735 236.843 354.583C233.837 345.65 230.204 336.796 228.74 334.823C228.653 334.717 228.629 334.562 228.696 334.432C228.786 334.254 229.002 334.182 229.178 334.268L229.255 334.307L229.311 334.377C230.809 336.379 234.497 345.341 237.529 354.352C237.592 354.542 237.491 354.747 237.303 354.81C237.264 354.822 237.226 354.829 237.187 354.829H237.185Z" fill="#462B34"/>
<path d="M242.822 356.319C242.673 356.319 242.531 356.225 242.48 356.074C239.252 346.596 236.025 339.881 232.009 334.306C231.894 334.145 231.93 333.918 232.091 333.802C232.253 333.687 232.479 333.723 232.595 333.884C236.653 339.52 239.912 346.292 243.164 355.842C243.229 356.03 243.128 356.237 242.938 356.3C242.899 356.312 242.861 356.319 242.822 356.319Z" fill="#462B34"/>
<path d="M212.93 320.204C212.879 320.204 212.829 320.194 212.78 320.17C212.6 320.088 212.52 319.871 212.602 319.69C213.265 318.245 213.968 315.951 214.291 314.53C215.507 309.229 213.496 305.521 213.474 305.485C213.378 305.312 213.44 305.09 213.614 304.994C213.787 304.897 214.009 304.958 214.105 305.134C214.194 305.293 216.275 309.106 214.996 314.691C214.664 316.146 213.944 318.5 213.26 319.992C213.2 320.124 213.067 320.204 212.932 320.204H212.93Z" fill="#462B34"/>
<path d="M304.437 363.213L304.295 363.075C301.799 363.285 299.253 363.167 296.789 363.056C296.206 363.03 295.626 363.003 295.043 362.981C294.845 362.974 294.691 362.81 294.694 362.613C294.698 362.415 294.857 362.259 295.055 362.259C295.652 362.28 296.238 362.307 296.82 362.336C299.313 362.449 301.893 362.567 304.393 362.343H304.42C304.644 362.324 304.868 362.3 305.092 362.273C305.311 362.251 305.528 362.223 305.742 362.194C305.834 362.182 305.923 362.167 306.007 362.153L306.065 362.148C306.265 362.148 306.426 362.309 306.426 362.509C306.426 362.695 306.287 362.849 306.106 362.868C306.019 362.883 305.928 362.897 305.839 362.909C305.617 362.941 305.391 362.969 305.167 362.994C304.979 363.015 304.786 363.034 304.596 363.051L304.434 363.213H304.437Z" fill="#462B34"/>
<path d="M134.345 82.695C127.538 82.695 122 77.1561 122 70.3475C122 63.5389 127.538 58 134.345 58C141.152 58 146.689 63.5389 146.689 70.3475C146.689 77.1561 141.152 82.695 134.345 82.695ZM134.345 58.7252C127.938 58.7252 122.723 63.9388 122.723 70.3499C122.723 76.761 127.935 81.9746 134.345 81.9746C140.754 81.9746 145.967 76.761 145.967 70.3499C145.967 63.9388 140.754 58.7252 134.345 58.7252Z" fill="#462B34"/>
<path d="M624.425 189.18C617.618 189.18 612.08 183.641 612.08 176.832C612.08 170.024 617.618 164.485 624.425 164.485C631.232 164.485 636.77 170.024 636.77 176.832C636.77 183.641 631.232 189.18 624.425 189.18ZM624.425 165.21C618.018 165.21 612.803 170.424 612.803 176.835C612.803 183.246 618.015 188.459 624.425 188.459C630.835 188.459 636.047 183.246 636.047 176.835C636.047 170.424 630.835 165.21 624.425 165.21Z" fill="#462B34"/>
<path d="M237.735 287.504C237.232 288.046 236.695 288.506 236.131 288.899C236.948 294.094 236.261 299.401 236.261 299.401C236.261 299.389 236.261 299.377 236.261 299.365C236.092 294.973 235.129 291.798 234.336 289.885C231.208 291.166 227.488 290.709 223.716 289.176C218.451 287.034 215.862 287.528 213.988 290.518C211.947 293.776 211.817 296.59 211.817 296.59C211.09 296.474 210.432 296.573 209.864 296.826C209.466 297.002 209.11 297.255 208.804 297.563C207.378 298.984 206.968 301.589 208.129 303.405C208.65 304.227 209.493 304.887 210.707 305.203H210.709C211.552 305.424 212.574 305.48 213.792 305.309C213.792 305.309 215.91 309.096 214.645 314.611C209.225 311.65 196.173 302.116 206.638 284.396C212.4 274.641 218.54 275.769 224.051 276.73C231.022 277.947 234.902 279.973 237.451 279.171C238.814 278.744 239.934 277.45 240.233 278.221C240.534 278.995 241.334 283.645 237.738 287.504H237.735Z" fill="#27191C"/>
<path d="M229.305 297.648C229.348 298.501 230.075 299.157 230.928 299.113C231.781 299.07 232.436 298.342 232.393 297.489C232.349 296.636 231.622 295.981 230.769 296.025C229.916 296.068 229.261 296.795 229.305 297.648Z" fill="#27191C"/>
<path d="M218.798 297.438C218.842 298.291 219.569 298.946 220.422 298.903C221.275 298.86 221.93 298.132 221.886 297.279C221.843 296.426 221.116 295.771 220.263 295.814C219.41 295.858 218.755 296.585 218.798 297.438Z" fill="#27191C"/>
<path d="M256.623 358.222C256.631 358.249 256.619 358.278 256.594 358.29C256.525 358.321 256.457 358.441 256.392 358.617C256.154 358.576 255.92 358.535 255.682 358.492C255.595 358.475 255.508 358.461 255.419 358.446C255.226 357.104 255 355.538 254.976 355.427C253.856 350.31 252.709 344.901 250.582 339.892C250.732 340.157 254.152 347.573 256.626 358.222H256.623Z" fill="#27191C"/>
<defs>
<filter id="filter0_d_13_285" x="367.884" y="92.6394" width="322.877" height="169.931" filterUnits="userSpaceOnUse" color-interpolation-filters="sRGB">
<feFlood flood-opacity="0" result="BackgroundImageFix"/>
<feColorMatrix in="SourceAlpha" type="matrix" values="0 0 0 0 0 0 0 0 0 0 0 0 0 0 0 0 0 0 127 0" result="hardAlpha"/>
<feOffset dx="-1.32266" dy="2.64532"/>
<feGaussianBlur stdDeviation="13.2266"/>
<feComposite in2="hardAlpha" operator="out"/>
<feColorMatrix type="matrix" values="0 0 0 0 0 0 0 0 0 0 0 0 0 0 0 0 0 0 0.02 0"/>
<feBlend mode="normal" in2="BackgroundImageFix" result="effect1_dropShadow_13_285"/>
<feBlend mode="normal" in="SourceGraphic" in2="effect1_dropShadow_13_285" result="shape"/>
</filter>
<filter id="filter1_d_13_285" x="10.2241" y="0.192108" width="257.919" height="132.927" filterUnits="userSpaceOnUse" color-interpolation-filters="sRGB">
<feFlood flood-opacity="0" result="BackgroundImageFix"/>
<feColorMatrix in="SourceAlpha" type="matrix" values="0 0 0 0 0 0 0 0 0 0 0 0 0 0 0 0 0 0 127 0" result="hardAlpha"/>
<feOffset dx="-1.32266" dy="2.64532"/>
<feGaussianBlur stdDeviation="13.2266"/>
<feComposite in2="hardAlpha" operator="out"/>
<feColorMatrix type="matrix" values="0 0 0 0 0 0 0 0 0 0 0 0 0 0 0 0 0 0 0.02 0"/>
<feBlend mode="normal" in2="BackgroundImageFix" result="effect1_dropShadow_13_285"/>
<feBlend mode="normal" in="SourceGraphic" in2="effect1_dropShadow_13_285" result="shape"/>
</filter>
<filter id="filter2_d_13_285" x="0.632571" y="387.807" width="469.072" height="151.447" filterUnits="userSpaceOnUse" color-interpolation-filters="sRGB">
<feFlood flood-opacity="0" result="BackgroundImageFix"/>
<feColorMatrix in="SourceAlpha" type="matrix" values="0 0 0 0 0 0 0 0 0 0 0 0 0 0 0 0 0 0 127 0" result="hardAlpha"/>
<feOffset dx="-1.7794" dy="3.5588"/>
<feGaussianBlur stdDeviation="17.794"/>
<feComposite in2="hardAlpha" operator="out"/>
<feColorMatrix type="matrix" values="0 0 0 0 0 0 0 0 0 0 0 0 0 0 0 0 0 0 0.02 0"/>
<feBlend mode="normal" in2="BackgroundImageFix" result="effect1_dropShadow_13_285"/>
<feBlend mode="normal" in="SourceGraphic" in2="effect1_dropShadow_13_285" result="shape"/>
</filter>
<filter id="filter3_d_13_285" x="478.525" y="362.421" width="160.704" height="92.3307" filterUnits="userSpaceOnUse" color-interpolation-filters="sRGB">
<feFlood flood-opacity="0" result="BackgroundImageFix"/>
<feColorMatrix in="SourceAlpha" type="matrix" values="0 0 0 0 0 0 0 0 0 0 0 0 0 0 0 0 0 0 127 0" result="hardAlpha"/>
<feOffset dx="-0.771637" dy="1.54327"/>
<feGaussianBlur stdDeviation="7.71637"/>
<feComposite in2="hardAlpha" operator="out"/>
<feColorMatrix type="matrix" values="0 0 0 0 0 0 0 0 0 0 0 0 0 0 0 0 0 0 0.02 0"/>
<feBlend mode="normal" in2="BackgroundImageFix" result="effect1_dropShadow_13_285"/>
<feBlend mode="normal" in="SourceGraphic" in2="effect1_dropShadow_13_285" result="shape"/>
</filter>
</defs>
</svg>
