<svg width="720" height="204" viewBox="0 0 720 204" fill="none" xmlns="http://www.w3.org/2000/svg">
<path d="M213.521 155H188.636V43.8457H213.521V97.2661H214.849C217.503 83.1645 227.291 70.2241 248.527 70.2241C270.923 70.2241 281.873 84.8235 281.873 104.068V155H256.988V111.534C256.988 97.5979 251.015 92.6209 235.42 92.6209C218.664 92.6209 213.521 99.4229 213.521 113.359V155ZM308.698 183.203H295.095V160.641H315.5C321.639 160.641 324.293 158.982 325.952 155.332L285.306 71.8831H313.51L331.095 109.875L338.063 129.451H339.722L346.358 109.709L362.119 71.8831H389.825L348.681 160.972C340.718 178.392 329.602 183.203 308.698 183.203ZM419.039 155H394.154V71.8831H417.214V93.9481H418.707C421.03 80.51 429.822 70.2241 446.579 70.2241C465.16 70.2241 472.791 82.9986 472.791 99.257V113.027H447.906V104.4C447.906 95.2753 444.256 91.2937 434.136 91.2937C423.02 91.2937 419.039 96.4366 419.039 106.888V155ZM505.029 63.4222H480.144V43.8457H505.029V63.4222ZM505.029 155H480.144V71.8831H505.029V155ZM541.281 155H516.396V71.8831H539.456V97.432H540.949C543.106 83.4963 553.06 70.2241 574.793 70.2241C597.522 70.2241 608.306 84.8235 608.306 103.239V155H583.42V111.534C583.42 98.2616 577.946 92.6209 562.683 92.6209C546.922 92.6209 541.281 98.9252 541.281 113.027V155ZM655.734 146.539C631.015 146.539 616.747 131.774 616.747 108.382C616.747 85.1553 631.844 70.2241 656.73 70.2241C673.652 70.2241 685.762 77.5238 688.417 91.9573H689.744V71.8831H712.97V142.889C712.97 171.922 695.385 184.862 665.688 184.862C638.812 184.862 621.89 172.917 621.89 152.014H646.775C646.775 161.304 650.425 164.125 667.347 164.125C683.274 164.125 688.085 160.807 688.085 144.548V125.801H686.758C684.103 138.078 674.315 146.539 655.734 146.539ZM641.798 108.382C641.798 120.658 648.766 125.138 664.361 125.138C680.288 125.138 688.085 120.658 688.085 109.211V107.386C688.085 96.1048 680.122 91.7914 664.693 91.7914C648.766 91.7914 641.798 96.1048 641.798 108.382Z" fill="#102713"/>
<g clip-path="url(#clip0_2978_40339)">
<path d="M126.869 171.998H89.2703C84.7886 171.998 81.1561 168.372 81.1561 163.897V90.8165L86.314 89.0895C110.248 81.0828 134.999 98.8546 134.999 124.068V163.897C134.999 168.372 131.366 171.998 126.885 171.998H126.869Z" fill="#102713"/>
<path d="M7.94118 27H45.8858C50.2732 27 53.827 30.5481 53.827 34.9282V108.182L48.6692 109.909C24.7513 117.915 0 100.144 0 74.9304V34.9282C0 30.5481 3.55387 27 7.94118 27Z" fill="#102713"/>
<path d="M83.5789 94.348C83.5789 94.348 83.5789 124.224 57.4438 147.883C47.7729 156.267 37.4415 162.013 25.6319 165.765L6.84042 171.731C3.47525 172.814 0 170.412 0 167.021V124.208C0 122.058 1.44671 120.158 3.5696 119.499L83.5789 94.348Z" fill="#102713"/>
<path d="M51.42 104.677C51.42 104.677 51.42 74.8011 77.5551 51.1421C87.226 42.7586 97.5574 37.0126 109.367 33.2604L128.143 27.2946C131.508 26.2271 134.999 28.6134 134.999 32.0045V74.8168C134.999 76.9677 133.552 78.8673 131.429 79.5267L51.42 104.677Z" fill="#102713"/>
</g>
<defs>
<clipPath id="clip0_2978_40339">
<rect width="135" height="145" fill="white" transform="translate(0 27)"/>
</clipPath>
</defs>
</svg>
