<svg width="114" height="20" viewBox="0 0 114 20" fill="none" xmlns="http://www.w3.org/2000/svg">
<path d="M0 19.3184V0H4.51994V7.97676H13.4228V0H17.9427V19.3184H13.4228V11.2865H4.51994V19.3184H0Z" fill="#102713"/>
<path d="M39.0469 19.3184V0H49.4574C50.9652 0 52.2774 0.21229 53.3957 0.635199C54.514 1.05811 55.3815 1.65653 55.9983 2.4288C56.6151 3.20107 56.9227 4.11208 56.9227 5.16015V5.49112C56.9227 6.64953 56.58 7.58895 55.8947 8.30606C55.2093 9.02316 54.3652 9.54804 53.3606 9.87901V10.3755C54.2733 10.4122 54.982 10.6647 55.4835 11.1344C55.9849 11.6041 56.2374 12.2242 56.2374 12.9982V19.3184H51.7174V13.523C51.7174 13.0817 51.5753 12.7224 51.2895 12.4465C51.0037 12.1707 50.5306 12.032 49.8687 12.032H43.5668V19.3184H39.0469ZM43.5668 8.72061H48.9777C50.0509 8.72061 50.89 8.48659 51.4951 8.01688C52.1002 7.54716 52.4028 6.92701 52.4028 6.15474V5.87893C52.4028 5.10666 52.1052 4.48484 51.5118 4.01512C50.9184 3.54541 50.0726 3.31139 48.9777 3.31139H43.5668V8.72061Z" fill="#102713"/>
<path d="M59.2422 19.3184V0H63.7621V19.3184H59.2422Z" fill="#102713"/>
<path d="M66.0781 19.3184V0H74.6734L79.434 16.8344H80.0508V0H84.5022V19.3184H75.907L71.1463 2.48396H70.5295V19.3184H66.0781Z" fill="#102713"/>
<path d="M95.6484 19.3184C94.0053 19.3184 92.5142 19.0309 91.1787 18.4559C89.8431 17.8808 88.7816 17.04 87.9943 15.9351C87.207 14.8302 86.8125 13.4813 86.8125 11.8882V7.43015C86.8125 5.04147 87.68 3.20608 89.4151 1.92398C91.1502 0.641885 93.5021 0 96.4692 0C99.4362 0 101.691 0.606782 103.301 1.81867C104.911 3.03057 105.715 4.67205 105.715 6.74146V6.84677H101.263V6.63448C101.263 5.9809 101.086 5.38749 100.733 4.85593C100.379 4.32604 99.8474 3.9048 99.1404 3.59556C98.4333 3.28632 97.5423 3.13086 96.4692 3.13086C94.8712 3.13086 93.6158 3.51198 92.7015 4.27255C91.7888 5.03311 91.3324 6.06782 91.3324 7.37833V11.9434C91.3324 13.2355 91.7888 14.2753 92.7015 15.0609C93.6141 15.8482 94.8929 16.241 96.5377 16.241C98.1826 16.241 99.3811 15.905 100.133 15.2331C100.887 14.5611 101.263 13.7119 101.263 12.6856V12.4198H95.5782V9.44774H105.715V19.3201H101.537V17.1704H100.921C100.76 17.4713 100.504 17.7906 100.15 18.1249C99.7956 18.4609 99.2657 18.745 98.557 18.9741C97.8499 19.2031 96.8787 19.3184 95.6468 19.3184H95.6484Z" fill="#102713"/>
<path d="M22.2626 19.3217V16.2678H31.5248C32.165 16.2678 32.486 15.9903 32.486 15.4353V11.9651H31.8692C31.6853 12.2794 31.3994 12.5936 31.0116 12.9096C30.6222 13.2238 30.0973 13.4829 29.4337 13.6869C28.7701 13.8908 27.9242 13.9928 26.8945 13.9928C25.5673 13.9928 24.4072 13.747 23.4127 13.2573C22.4181 12.7675 21.6458 12.0872 21.0975 11.2179C20.5492 10.3487 20.2734 9.34912 20.2734 8.21914V0H24.5961V7.93998C24.5961 8.97636 24.9104 9.75364 25.5406 10.2718C26.1691 10.79 27.0667 11.0491 28.2335 11.0491C29.559 11.0491 30.5887 10.6931 31.3209 9.98098C32.053 9.26888 32.4191 8.2743 32.4191 6.99721V0H36.7418V16.2126C36.7418 17.157 36.3991 17.9109 35.7121 18.4742C35.0268 19.0392 34.1107 19.3217 32.9674 19.3217H22.2643H22.2626Z" fill="#102713"/>
<path fill-rule="evenodd" clip-rule="evenodd" d="M110.639 0.00282821C110.43 0.0113214 110.141 0.0563284 109.941 0.1116C109.386 0.265234 108.912 0.541441 108.508 0.946172C108.36 1.09406 108.274 1.1956 108.163 1.35033C107.616 2.11472 107.431 3.08306 107.657 3.99467C107.878 4.88759 108.468 5.63935 109.287 6.07411C109.659 6.27127 110.074 6.39211 110.52 6.43314C110.629 6.44315 110.93 6.4432 111.042 6.43322C111.728 6.37245 112.339 6.11953 112.863 5.67894C112.961 5.59625 113.148 5.4109 113.231 5.31251C113.665 4.80364 113.927 4.18387 113.989 3.52214C114.015 3.24005 114.005 2.9697 113.958 2.68346C113.864 2.1232 113.622 1.59963 113.248 1.15005C113.164 1.04932 112.953 0.838484 112.856 0.758146C112.457 0.427087 112.032 0.211453 111.543 0.0920787C111.246 0.0196081 110.949 -0.00975822 110.639 0.00282821ZM110.576 0.406133C110.222 0.432545 109.883 0.523579 109.563 0.678346C109.266 0.821985 109.023 0.994672 108.79 1.22796C108.563 1.4548 108.391 1.69432 108.251 1.97934C107.863 2.76775 107.865 3.6955 108.258 4.47958C108.315 4.59396 108.359 4.66899 108.44 4.78954C108.81 5.34477 109.362 5.74879 110.007 5.93487C110.681 6.12938 111.412 6.06197 112.039 5.74759C112.546 5.49389 112.959 5.1014 113.241 4.60687C113.286 4.52797 113.372 4.34773 113.406 4.26053C113.729 3.44373 113.654 2.52127 113.203 1.7728C112.989 1.41641 112.691 1.10307 112.35 0.876099C111.932 0.598428 111.476 0.442383 110.974 0.405482C110.872 0.398046 110.68 0.398359 110.576 0.406133ZM109.63 3.21985L109.631 4.91472L109.926 4.91634L110.22 4.91797V4.26694V3.6159L110.548 3.61753L110.877 3.61915L110.92 3.70051C110.997 3.84829 111.26 4.35305 111.408 4.63782L111.554 4.91796L111.871 4.91634C112.164 4.91484 112.187 4.91394 112.189 4.90395C112.19 4.89802 112.15 4.81634 112.099 4.72244C112.049 4.62854 111.95 4.44609 111.881 4.317C111.468 3.55363 111.427 3.47525 111.435 3.47279C111.458 3.46526 111.587 3.39519 111.627 3.36766C111.753 3.28256 111.858 3.17227 111.926 3.05574C112.005 2.92042 112.04 2.78149 112.045 2.58332C112.053 2.26422 111.97 2.02531 111.786 1.84186C111.653 1.70877 111.453 1.60835 111.232 1.5636C111.061 1.52881 111.083 1.52973 110.329 1.52727L109.628 1.52499L109.63 3.21985ZM110.22 2.56767V3.13409L110.568 3.13397C110.766 3.1339 110.936 3.13114 110.961 3.12761C111.22 3.09084 111.396 2.94039 111.442 2.71651C111.472 2.57316 111.454 2.40297 111.396 2.28559C111.315 2.12348 111.162 2.03079 110.937 2.00812C110.897 2.0041 110.734 2.00125 110.544 2.00125H110.22V2.56767Z" fill="#102713"/>
</svg>
