<svg width="24" height="24" viewBox="0 0 24 24" fill="none" xmlns="http://www.w3.org/2000/svg">
<path opacity="0.4" d="M12 22C17.5228 22 22 17.5228 22 12C22 6.47715 17.5228 2 12 2C6.47715 2 2 6.47715 2 12C2 17.5228 6.47715 22 12 22Z" fill="#3D5C2C"/>
<path d="M8.00141 14.7475C7.81141 14.7475 7.62141 14.6776 7.47141 14.5276L5.47141 12.5276C5.18141 12.2376 5.18141 11.7575 5.47141 11.4675L7.47141 9.4675C7.76141 9.1775 8.2414 9.1775 8.5314 9.4675C8.8214 9.7575 8.8214 10.2376 8.5314 10.5276L7.0614 11.9975L8.5314 13.4675C8.8214 13.7575 8.8214 14.2376 8.5314 14.5276C8.3814 14.6776 8.1914 14.7475 8.00141 14.7475Z" fill="#3D5C2C"/>
<path d="M16.0014 14.7475C15.8114 14.7475 15.6214 14.6776 15.4714 14.5276C15.1814 14.2376 15.1814 13.7575 15.4714 13.4675L16.9414 11.9975L15.4714 10.5276C15.1814 10.2376 15.1814 9.7575 15.4714 9.4675C15.7614 9.1775 16.2414 9.1775 16.5314 9.4675L18.5314 11.4675C18.8214 11.7575 18.8214 12.2376 18.5314 12.5276L16.5314 14.5276C16.3814 14.6776 16.1914 14.7475 16.0014 14.7475Z" fill="#3D5C2C"/>
<path d="M10.9982 15.0806C10.8982 15.0806 10.7982 15.0606 10.7082 15.0206C10.3282 14.8606 10.1482 14.4206 10.3182 14.0306L12.3182 9.36053C12.4782 8.98053 12.9182 8.80051 13.2982 8.97051C13.6782 9.13051 13.8582 9.57056 13.6882 9.96056L11.6882 14.6305C11.5682 14.9105 11.2882 15.0806 10.9982 15.0806Z" fill="#3D5C2C"/>
</svg>
