<svg width="1052" height="214" viewBox="0 0 1052 214" fill="none" xmlns="http://www.w3.org/2000/svg">
<path d="M18.75 194.46V7H62.6101V84.404H149V7H192.86V194.46H149V116.521H62.6101V194.46H18.75Z" stroke="#244424" stroke-width="1.5"/>
<path d="M397.664 194.46V7H498.685C513.316 7 526.049 9.06 536.901 13.1638C547.752 17.2676 556.17 23.0745 562.156 30.5683C568.141 38.0622 571.126 46.9023 571.126 57.0726V60.2842C571.126 71.525 567.801 80.6409 561.15 87.5995C554.5 94.5581 546.308 99.6513 536.56 102.863V107.68C545.416 108.037 552.294 110.487 557.16 115.045C562.026 119.602 564.475 125.62 564.475 133.13V194.46H520.615V138.224C520.615 133.941 519.236 130.454 516.463 127.778C513.689 125.101 509.099 123.755 502.675 123.755H441.524V194.46H397.664ZM441.524 91.6221H494.03C504.443 91.6221 512.586 89.3513 518.458 84.7933C524.33 80.2354 527.266 74.2176 527.266 66.7237V64.0474C527.266 56.5535 524.378 50.5195 518.62 45.9616C512.862 41.4036 504.654 39.1327 494.03 39.1327H441.524V91.6221Z" stroke="#244424" stroke-width="1.5"/>
<path d="M593.648 194.46V7H637.509V194.46H593.648Z" stroke="#244424" stroke-width="1.5"/>
<path d="M659.938 194.46V7H743.343L789.539 170.356H795.524V7H838.719V194.46H755.314L709.118 31.1036H703.133V194.46H659.938Z" stroke="#244424" stroke-width="1.5"/>
<path d="M946.866 194.46C930.922 194.46 916.453 191.67 903.493 186.09C890.533 180.51 880.233 172.351 872.593 161.63C864.953 150.908 861.125 137.818 861.125 122.36V79.1C861.125 55.9209 869.543 38.1109 886.38 25.6698C903.217 13.2287 926.039 7 954.831 7C983.622 7 1005.5 12.888 1021.12 24.6479C1036.74 36.4077 1044.55 52.3362 1044.55 72.4171V73.439H1001.35V71.379C1001.35 65.0368 999.631 59.2786 996.209 54.1205C992.77 48.9786 987.612 44.891 980.751 41.8902C973.89 38.8894 965.244 37.3809 954.831 37.3809C939.324 37.3809 927.142 41.0792 918.27 48.4595C909.413 55.8398 904.985 65.8803 904.985 78.5971V122.895C904.985 135.434 909.413 145.523 918.27 153.146C927.126 160.786 939.535 164.598 955.496 164.598C971.457 164.598 983.087 161.338 990.386 154.817C997.701 148.296 1001.35 140.056 1001.35 130.097V127.518H946.185V98.6781H1044.55V194.476H1004.01V173.617H998.026C996.468 176.536 993.987 179.634 990.548 182.879C987.109 186.139 981.967 188.896 975.09 191.119C968.229 193.341 958.805 194.46 946.85 194.46H946.866Z" stroke="#244424" stroke-width="1.5"/>
<path d="M234.771 194.492V164.858H324.649C330.861 164.858 333.975 162.165 333.975 156.78V123.106H327.99C326.206 126.156 323.432 129.205 319.669 132.271C315.89 135.32 310.796 137.834 304.357 139.813C297.917 141.792 289.71 142.782 279.718 142.782C266.839 142.782 255.582 140.397 245.931 135.645C236.28 130.892 228.786 124.29 223.465 115.856C218.145 107.421 215.469 97.7211 215.469 86.756V7H257.415V84.0472C257.415 94.1039 260.464 101.646 266.579 106.675C272.678 111.703 281.389 114.217 292.711 114.217C305.573 114.217 315.565 110.762 322.67 103.852C329.774 96.9425 333.327 87.2913 333.327 74.8989V7H375.273V164.322C375.273 173.487 371.948 180.802 365.281 186.269C358.631 191.751 349.742 194.492 338.647 194.492H234.787H234.771Z" stroke="#244424" stroke-width="1.5"/>
<path d="M9.75 203.46V16H53.6101V93.404H140V16H183.86V203.46H140V125.521H53.6101V203.46H9.75Z" stroke="#244424" stroke-width="1.5"/>
<path d="M388.664 203.46V16H489.685C504.316 16 517.049 18.06 527.901 22.1638C538.752 26.2676 547.17 32.0745 553.156 39.5683C559.141 47.0622 562.126 55.9023 562.126 66.0726V69.2842C562.126 80.525 558.801 89.6409 552.15 96.5995C545.5 103.558 537.308 108.651 527.56 111.863V116.68C536.416 117.037 543.294 119.487 548.16 124.045C553.026 128.602 555.475 134.62 555.475 142.13V203.46H511.615V147.224C511.615 142.941 510.236 139.454 507.463 136.778C504.689 134.101 500.099 132.755 493.675 132.755H432.524V203.46H388.664ZM432.524 100.622H485.03C495.443 100.622 503.586 98.3513 509.458 93.7933C515.33 89.2354 518.266 83.2176 518.266 75.7237V73.0474C518.266 65.5535 515.378 59.5195 509.62 54.9616C503.862 50.4036 495.654 48.1327 485.03 48.1327H432.524V100.622Z" stroke="#244424" stroke-width="1.5"/>
<path d="M584.648 203.46V16H628.509V203.46H584.648Z" stroke="#244424" stroke-width="1.5"/>
<path d="M650.938 203.46V16H734.343L780.539 179.356H786.524V16H829.719V203.46H746.314L700.118 40.1036H694.133V203.46H650.938Z" stroke="#244424" stroke-width="1.5"/>
<path d="M937.866 203.46C921.922 203.46 907.453 200.67 894.493 195.09C881.533 189.51 871.233 181.351 863.593 170.63C855.953 159.908 852.125 146.818 852.125 131.36V88.1C852.125 64.9209 860.543 47.1109 877.38 34.6698C894.217 22.2287 917.039 16 945.831 16C974.622 16 996.503 21.888 1012.12 33.6479C1027.74 45.4077 1035.55 61.3362 1035.55 81.4171V82.439H992.351V80.379C992.351 74.0368 990.631 68.2786 987.209 63.1205C983.77 57.9786 978.612 53.891 971.751 50.8902C964.89 47.8894 956.244 46.3809 945.831 46.3809C930.324 46.3809 918.142 50.0792 909.27 57.4595C900.413 64.8398 895.985 74.8803 895.985 87.5971V131.895C895.985 144.434 900.413 154.523 909.27 162.146C918.126 169.786 930.535 173.598 946.496 173.598C962.457 173.598 974.087 170.338 981.386 163.817C988.701 157.296 992.351 149.056 992.351 139.097V136.518H937.185V107.678H1035.55V203.476H995.011V182.617H989.026C987.468 185.536 984.987 188.634 981.548 191.879C978.109 195.139 972.967 197.896 966.09 200.119C959.229 202.341 949.805 203.46 937.85 203.46H937.866Z" stroke="#244424" stroke-width="1.5"/>
<path d="M225.771 203.492V173.858H315.649C321.861 173.858 324.975 171.165 324.975 165.78V132.106H318.99C317.206 135.156 314.432 138.205 310.669 141.271C306.89 144.32 301.796 146.834 295.357 148.813C288.917 150.792 280.71 151.782 270.718 151.782C257.839 151.782 246.582 149.397 236.931 144.645C227.28 139.892 219.786 133.29 214.465 124.856C209.145 116.421 206.469 106.721 206.469 95.756V16H248.415V93.0472C248.415 103.104 251.464 110.646 257.579 115.675C263.678 120.703 272.389 123.217 283.711 123.217C296.573 123.217 306.565 119.762 313.67 112.852C320.774 105.942 324.327 96.2913 324.327 83.8989V16H366.273V173.322C366.273 182.487 362.948 189.802 356.281 195.269C349.631 200.751 340.742 203.492 329.647 203.492H225.787H225.771Z" stroke="#244424" stroke-width="1.5"/>
<path d="M0.75 199.46V12H44.6101V89.404H131V12H174.86V199.46H131V121.521H44.6101V199.46H0.75Z" stroke="#244424" stroke-width="1.5"/>
<path d="M379.664 212.46V25H480.685C495.316 25 508.049 27.06 518.901 31.1638C529.752 35.2676 538.17 41.0745 544.156 48.5683C550.141 56.0622 553.126 64.9023 553.126 75.0726V78.2842C553.126 89.525 549.801 98.6409 543.15 105.599C536.5 112.558 528.308 117.651 518.56 120.863V125.68C527.416 126.037 534.294 128.487 539.16 133.045C544.026 137.602 546.475 143.62 546.475 151.13V212.46H502.615V156.224C502.615 151.941 501.236 148.454 498.463 145.778C495.689 143.101 491.099 141.755 484.675 141.755H423.524V212.46H379.664ZM423.524 109.622H476.03C486.443 109.622 494.586 107.351 500.458 102.793C506.33 98.2354 509.266 92.2176 509.266 84.7237V82.0474C509.266 74.5535 506.378 68.5195 500.62 63.9616C494.862 59.4036 486.654 57.1327 476.03 57.1327H423.524V109.622Z" stroke="#244424" stroke-width="1.5"/>
<path d="M575.648 212.46V25H619.509V212.46H575.648Z" stroke="#244424" stroke-width="1.5"/>
<path d="M641.938 212.46V25H725.343L771.539 188.356H777.524V25H820.719V212.46H737.314L691.118 49.1036H685.133V212.46H641.938Z" stroke="#244424" stroke-width="1.5"/>
<path d="M928.866 212.46C912.922 212.46 898.453 209.67 885.493 204.09C872.533 198.51 862.233 190.351 854.593 179.63C846.953 168.908 843.125 155.818 843.125 140.36V97.1C843.125 73.9209 851.543 56.1109 868.38 43.6698C885.217 31.2287 908.039 25 936.831 25C965.622 25 987.503 30.888 1003.12 42.6479C1018.74 54.4077 1026.55 70.3362 1026.55 90.4171V91.439H983.351V89.379C983.351 83.0368 981.631 77.2786 978.209 72.1205C974.77 66.9786 969.612 62.891 962.751 59.8902C955.89 56.8894 947.244 55.3809 936.831 55.3809C921.324 55.3809 909.142 59.0792 900.27 66.4595C891.413 73.8398 886.985 83.8803 886.985 96.5971V140.895C886.985 153.434 891.413 163.523 900.27 171.146C909.126 178.786 921.535 182.598 937.496 182.598C953.457 182.598 965.087 179.338 972.386 172.817C979.701 166.296 983.351 158.056 983.351 148.097V145.518H928.185V116.678H1026.55V212.476H986.011V191.617H980.026C978.468 194.536 975.987 197.634 972.548 200.879C969.109 204.139 963.967 206.896 957.09 209.119C950.229 211.341 940.805 212.46 928.85 212.46H928.866Z" stroke="#244424" stroke-width="1.5"/>
<path d="M216.771 212.492V182.858H306.649C312.861 182.858 315.975 180.165 315.975 174.78V141.106H309.99C308.206 144.156 305.432 147.205 301.669 150.271C297.89 153.32 292.796 155.834 286.357 157.813C279.917 159.792 271.71 160.782 261.718 160.782C248.839 160.782 237.582 158.397 227.931 153.645C218.28 148.892 210.786 142.29 205.465 133.856C200.145 125.421 197.469 115.721 197.469 104.756V25H239.415V102.047C239.415 112.104 242.464 119.646 248.579 124.675C254.678 129.703 263.389 132.217 274.711 132.217C287.573 132.217 297.565 128.762 304.67 121.852C311.774 114.942 315.327 105.291 315.327 92.8989V25H357.273V182.322C357.273 191.487 353.948 198.802 347.281 204.269C340.631 209.751 331.742 212.492 320.647 212.492H216.787H216.771Z" stroke="#244424" stroke-width="1.5"/>
<path d="M25.75 187.46V0H69.6101V77.404H156V0H199.86V187.46H156V109.521H69.6101V187.46H25.75Z" fill="#244424"/>
<path d="M404.664 187.46V0H505.685C520.316 0 533.049 2.06 543.901 6.16378C554.752 10.2676 563.17 16.0745 569.156 23.5683C575.141 31.0622 578.126 39.9023 578.126 50.0726V53.2842C578.126 64.525 574.801 73.6409 568.15 80.5995C561.5 87.5581 553.308 92.6513 543.56 95.8629V100.68C552.416 101.037 559.294 103.487 564.16 108.045C569.026 112.602 571.475 118.62 571.475 126.13V187.46H527.615V131.224C527.615 126.941 526.236 123.454 523.463 120.778C520.689 118.101 516.099 116.755 509.675 116.755H448.524V187.46H404.664ZM448.524 84.6221H501.03C511.443 84.6221 519.586 82.3513 525.458 77.7933C531.33 73.2354 534.266 67.2176 534.266 59.7237V57.0474C534.266 49.5535 531.378 43.5195 525.62 38.9616C519.862 34.4036 511.654 32.1327 501.03 32.1327H448.524V84.6221Z" fill="#244424"/>
<path d="M600.648 187.46V0H644.509V187.46H600.648Z" fill="#244424"/>
<path d="M666.938 187.46V0H750.343L796.539 163.356H802.524V0H845.719V187.46H762.314L716.118 24.1036H710.133V187.46H666.938Z" fill="#244424"/>
<path d="M953.866 187.46C937.922 187.46 923.453 184.67 910.493 179.09C897.533 173.51 887.233 165.351 879.593 154.63C871.953 143.908 868.125 130.818 868.125 115.36V72.1C868.125 48.9209 876.543 31.1109 893.38 18.6698C910.217 6.22866 933.039 0 961.831 0C990.622 0 1012.5 5.88803 1028.12 17.6479C1043.74 29.4077 1051.55 45.3362 1051.55 65.4171V66.439H1008.35V64.379C1008.35 58.0368 1006.63 52.2786 1003.21 47.1205C999.77 41.9786 994.612 37.891 987.751 34.8902C980.89 31.8894 972.244 30.3809 961.831 30.3809C946.324 30.3809 934.142 34.0792 925.27 41.4595C916.413 48.8398 911.985 58.8803 911.985 71.5971V115.895C911.985 128.434 916.413 138.523 925.27 146.146C934.126 153.786 946.535 157.598 962.496 157.598C978.457 157.598 990.087 154.338 997.386 147.817C1004.7 141.296 1008.35 133.056 1008.35 123.097V120.518H953.185V91.6781H1051.55V187.476H1011.01V166.617H1005.03C1003.47 169.536 1000.99 172.634 997.548 175.879C994.109 179.139 988.967 181.896 982.09 184.119C975.229 186.341 965.805 187.46 953.85 187.46H953.866Z" fill="#244424"/>
<path d="M241.771 187.492V157.858H331.649C337.861 157.858 340.975 155.165 340.975 149.78V116.106H334.99C333.206 119.156 330.432 122.205 326.669 125.271C322.89 128.32 317.796 130.834 311.357 132.813C304.917 134.792 296.71 135.782 286.718 135.782C273.839 135.782 262.582 133.397 252.931 128.645C243.28 123.892 235.786 117.29 230.465 108.856C225.145 100.421 222.469 90.7211 222.469 79.756V0H264.415V77.0472C264.415 87.1039 267.464 94.6464 273.579 99.6748C279.678 104.703 288.389 107.217 299.711 107.217C312.573 107.217 322.565 103.762 329.67 96.8524C336.774 89.9425 340.327 80.2913 340.327 67.8989V0H382.273V157.322C382.273 166.487 378.948 173.802 372.281 179.269C365.631 184.751 356.742 187.492 345.647 187.492H241.787H241.771Z" fill="#244424"/>
</svg>
